<svg xmlns="http://www.w3.org/2000/svg" viewBox="0 0 28.4127 28"><defs><style>.a{fill:#033333;}</style></defs><title>icon_approve_thin</title><rect class="a" x="2.1515" y="26.8155" width="24.1091" height="1.1845"/><path class="a" d="M23.4438,18.11l-6.15,0-.0261-.0276a4.1588,4.1588,0,0,1-1.1281-3.1917c0-1.2262.9025-2.8915,1.7757-4.5018C18.89,8.59,19.8118,6.89,19.8118,5.3911A5.4523,5.4523,0,0,0,14.3.0007l-.0911.0019A5.4521,5.4521,0,0,0,8.6023,5.301L8.6,5.3922c0,1.4975.9214,3.1972,1.897,4.9967.8739,1.6128,1.7763,3.2774,1.7763,4.5091a4.1555,4.1555,0,0,1-1.1289,3.1848l-.0259.0276H4.9739q-.1533-.01-.3053-.01A4.6066,4.6066,0,0,0,.24,21.396,10.4824,10.4824,0,0,0,0,23.4469v.8888a1.568,1.568,0,0,0,1.5635,1.5635H26.8491a1.5683,1.5683,0,0,0,1.5636-1.5635v-.89a10.4939,10.4939,0,0,0-.2415-2.052A4.607,4.607,0,0,0,23.4438,18.11ZM11.13,9.063a9.1383,9.1383,0,0,1-1.3439-3.66l-.001-.0066V5.39a4.2826,4.2826,0,0,1,4.2759-4.2057l.0729.0005.0757.0019a4.2819,4.2819,0,0,1,4.4167,4.1273l.0017.0756A9.1335,9.1335,0,0,1,17.2831,9.063l-.0258.041H11.1555Zm.7325,1.361-.0869-.1355h4.8621l-.0867.1355a10.6058,10.6058,0,0,0-1.5969,4.4839,5.9978,5.9978,0,0,0,.7488,3.0718l.0722.1307H12.6379L12.71,17.98A6.0036,6.0036,0,0,0,13.4578,14.9,10.5982,10.5982,0,0,0,11.862,10.424ZM27.2281,24.3367a.3855.3855,0,0,1-.3786.3787H1.5634a.3853.3853,0,0,1-.38-.3787v-.8911a9.3779,9.3779,0,0,1,.2069-1.7737A3.4241,3.4241,0,0,1,4.982,19.2952l18.4563,0a3.4172,3.4172,0,0,1,3.58,2.3646,9.3449,9.3449,0,0,1,.21,1.7836Z"/></svg>