<svg xmlns="http://www.w3.org/2000/svg" viewBox="0 0 27.89787 32.04919"><defs><style>.a{fill:#78818c;}</style></defs><title>file_view</title><path class="a" d="M12.89948,28.73315a2.42175,2.42175,0,0,1-.13147-.32891H2.52124a.8581.8581,0,0,1-.86169-.8617V2.42554a.85814.85814,0,0,1,.86169-.8617h14.5639a.85811.85811,0,0,1,.8617.8617v4.117a.83489.83489,0,0,0,.766.82984h3.57446a.8581.8581,0,0,1,.8617.86169V21.27161a8.46841,8.46841,0,0,1,1.65954.58056V5.84045l-.03186-.25531a.28776.28776,0,0,0-.03192-.1596V5.36169a1.47142,1.47142,0,0,0-.47876-.82977L20.27667.51062A1.74415,1.74415,0,0,0,19.0639,0H1.81915A1.83912,1.83912,0,0,0,0,1.81915v26.3617A1.83912,1.83912,0,0,0,1.81915,30H13.74408A10.06049,10.06049,0,0,1,12.89948,28.73315Z"/><path class="a" d="M21.24554,24.70917c2.36817,0,4.03864,1.86,4.75428,2.8399-.71637.981-2.38666,2.84015-4.75428,2.84015-2.36828,0-4.03906-1.86005-4.75476-2.8399.7165-.9809,2.38715-2.84015,4.75476-2.84015m0-1.66c-4.17193,0-6.4992,4.10865-6.59643,4.28357a.44329.44329,0,0,0,0,.43293c.09723.17486,2.4245,4.2835,6.59643,4.2835s6.49866-4.10864,6.59589-4.2835a.44329.44329,0,0,0,0-.43293c-.09723-.17492-2.424-4.28357-6.59589-4.28357Z"/><path class="a" d="M21.24556,29.16033a1.61507,1.61507,0,1,1,1.73625-1.611A1.67686,1.67686,0,0,1,21.24556,29.16033Z"/></svg>