<?xml version="1.0" encoding="utf-8"?>
<!-- Generator: Adobe Illustrator 21.1.0, SVG Export Plug-In . SVG Version: 6.00 Build 0)  -->
<svg version="1.1" id="レイヤー_1" xmlns="http://www.w3.org/2000/svg" xmlns:xlink="http://www.w3.org/1999/xlink" x="0px"
	 y="0px" viewBox="0 0 24 22" style="enable-background:new 0 0 24 22;" xml:space="preserve">
<style type="text/css">
	.st0{fill:#333333;}
	.st1{fill:none;stroke:#333333;stroke-width:0.8;stroke-linecap:round;stroke-linejoin:round;stroke-miterlimit:10;}
</style>
<title>folder-line</title>
<g>
	<path class="st0" d="M9.8138,4.7893c0.1028,0,0.1993,0.0471,0.2567,0.1241l1.2867,1.7368C11.5081,6.8538,11.7465,6.9739,12,6.9739
		h6.6842c0.1732,0,0.314,0.1311,0.314,0.2923v9.8308c0,0.1612-0.1409,0.2923-0.314,0.2923H5.3158
		c-0.1732,0-0.314-0.1311-0.314-0.2923V5.0816c0-0.1612,0.1409-0.2923,0.314-0.2923h4.4951H9.8138 M9.8138,3.9893
		c-0.001,0-0.0019,0-0.0029,0H5.3158c-0.6153,0-1.114,0.489-1.114,1.0923V17.097c0,0.6033,0.4988,1.0923,1.114,1.0923h13.3684
		c0.6153,0,1.114-0.489,1.114-1.0923V7.2662c0-0.6033-0.4988-1.0923-1.114-1.0923H12l-1.2867-1.7368
		C10.5035,4.1556,10.1693,3.9893,9.8138,3.9893L9.8138,3.9893z"/>
</g>
<line class="st1" x1="4.9496" y1="9.0955" x2="16.9862" y2="9.0955"/>
</svg>
