<?xml version="1.0" encoding="utf-8"?>
<!-- Generator: Adobe Illustrator 21.1.0, SVG Export Plug-In . SVG Version: 6.00 Build 0)  -->
<svg version="1.1" id="レイヤー_1" xmlns="http://www.w3.org/2000/svg" xmlns:xlink="http://www.w3.org/1999/xlink" x="0px"
	 y="0px" viewBox="0 0 36 36" style="enable-background:new 0 0 36 36;" xml:space="preserve">
<style type="text/css">
	.st0{fill:none;stroke:#333333;stroke-width:0.8;stroke-linecap:round;stroke-linejoin:round;stroke-miterlimit:10;}
</style>
<title>folder-open-line</title>
<path class="st0" d="M17.8405,9.6757h-5.1141l-1.2101-1.6419c-0.1978-0.2669-0.5133-0.4242-0.8487-0.4234H7.2677
	c-0.5787,0-1.0477,0.4623-1.0477,1.0327v11.7156c0.017,0.3867,0.3462,0.6881,0.7387,0.6764h13.0602
	c0.2405,0.0094,0.4567-0.1439,0.5239-0.3718l2.195-7.7966c0.083-0.2512,0.0423-0.5262-0.11-0.7435
	c-0.1715-0.2456-0.4572-0.3893-0.7596-0.3821H9.9761c-0.5117,0.0214-0.9676,0.3249-1.1787,0.7848
	c-0.0017,0.0241-0.0017,0.0482,0,0.0723L6.405,20.8028"/>
</svg>
