<svg xmlns="http://www.w3.org/2000/svg" viewBox="0 0 30 30"><defs><style>.a{fill:#666;}</style></defs><title>icon_file</title><path class="a" d="M26.14288,6.80579H15L12.855,3.91046a1.86913,1.86913,0,0,0-1.49951-.74652H3.85712A1.83918,1.83918,0,0,0,2,4.98486V25.01514a1.8393,1.8393,0,0,0,1.85712,1.82092H26.14288A1.83918,1.83918,0,0,0,28,25.01514V8.62671A1.83929,1.83929,0,0,0,26.14288,6.80579Zm.5235,18.20935a.507.507,0,0,1-.5235.4873H3.85712a.50686.50686,0,0,1-.5235-.4873V12.34338H23.3125a.667.667,0,0,0,0-1.334H3.33362V4.98486a.507.507,0,0,1,.5235-.4873h7.49835a.53491.53491,0,0,1,.428.20691l2.145,2.89532A1.33372,1.33372,0,0,0,15,8.1394H26.14288a.50687.50687,0,0,1,.5235.48731Z"/></svg>