<svg xmlns="http://www.w3.org/2000/svg" viewBox="0 0 36.82557 45.69467"><defs><style>.a{fill:#666;}</style></defs><title>icon_messagingsecurity</title><path class="a" d="M31.818,15.76557C31.79819,5.413,24.9891,0,18.2557,0,10.4737,0,5.03109,6.47923,5.01664,15.76557A5.98093,5.98093,0,0,0,0,21.553V39.8015a6.03687,6.03687,0,0,0,6.15025,5.89317H30.688a6.0327,6.0327,0,0,0,6.13756-5.89317V21.553A5.98123,5.98123,0,0,0,31.818,15.76557ZM18.2557,6.18109c4.15738,0,7.05471,3.88884,7.10881,9.47524H11.46468C11.5134,9.98852,14.22484,6.18109,18.2557,6.18109ZM30.50185,23.25657v3.7107l-12.08942,3.6929-12.0887-3.6929v-3.7107ZM6.32373,38.37829V28.0985l11.93082,3.64568.15788.04934,12.08942-3.69484V38.37829Z"/></svg>