<svg xmlns="http://www.w3.org/2000/svg" viewBox="0 0 4.99827 13"><defs><style>.a{fill:#414042;}</style></defs><title>icon_info</title><path class="a" d="M2.38147,3.0819a1.44605,1.44605,0,0,0,1.05344-.44828,1.4795,1.4795,0,0,0,.44268-1.08707A1.50114,1.50114,0,0,0,3.43491.45388,1.41251,1.41251,0,0,0,2.38147,0,1.42463,1.42463,0,0,0,1.32241.45388,1.50117,1.50117,0,0,0,.87974,1.54655a1.47953,1.47953,0,0,0,.44267,1.08707A1.428,1.428,0,0,0,2.38147,3.0819Zm1.894,9.08879a.69315.69315,0,0,1-.325-.30819.98025.98025,0,0,1-.11207-.49871V4.69569l-.11207-.12328L0,4.79095v.61077a2.47981,2.47981,0,0,1,.50431.11768A1.71838,1.71838,0,0,1,.919,5.70991a1.0048,1.0048,0,0,1,.30258.35862,1.09482,1.09482,0,0,1,.12328.51552v4.88621A1.05,1.05,0,0,1,1.244,11.969a.6613.6613,0,0,1-.34181.29138,1.24843,1.24843,0,0,1-.325.084c-.12888.01681-.25776.03362-.38663.04482V13H4.99827v-.61078a2.09219,2.09219,0,0,1-.381-.084A2.41386,2.41386,0,0,1,4.27543,12.17069Z"/></svg>