<?xml version="1.0" encoding="utf-8"?>
<!-- Generator: Adobe Illustrator 21.1.0, SVG Export Plug-In . SVG Version: 6.00 Build 0)  -->
<svg version="1.1" id="レイヤー_1" xmlns="http://www.w3.org/2000/svg" xmlns:xlink="http://www.w3.org/1999/xlink" x="0px"
	 y="0px" viewBox="0 0 18 18" style="enable-background:new 0 0 18 18;" xml:space="preserve">
<style type="text/css">
	.st0{fill:#333333;}
</style>
<title>icon_download</title>
<g id="レイヤー_2">
	<g id="管理ページ">
		<polygon class="st0" points="8.9,1 0.8,1 0.8,16 5.375,16 5.7187,15 1.8,15 1.8,2 8.3,2 8.3,5 11.6,5 11.8,5.2 11.8,7.3113 
			12.8,6.4 12.8,4.8 		"/>
	</g>
</g>
<path class="st0" d="M17.1992,7.6824c-0.2471-0.8979-0.8975-1.5532-1.7598-1.791c-0.5518-0.1846-1.2207-0.0269-1.6299,0.3882
	l-6.7578,6.853l-1.5371,4.5889l4.5391-1.5625l6.7178-6.8164C17.2354,8.967,17.4023,8.3171,17.1992,7.6824z M15.1455,6.8469
	c0.5518,0.1528,0.9395,0.5464,1.0918,1.1089l0.0078,0.0259c0.0521,0.159,0.0517,0.3549-0.0547,0.5135l-1.5641-1.5904
	C14.7637,6.8249,14.9598,6.7848,15.1455,6.8469z M7.7051,14.3315l1.1597,1.1793L7.1074,16.116L7.7051,14.3315z M9.7787,15.0141
	l-1.5866-1.6134l5.7181-5.7981l1.5862,1.6129L9.7787,15.0141z"/>
</svg>
