<svg xmlns="http://www.w3.org/2000/svg" viewBox="0 0 30 30"><defs><style>.a{fill:#666;}</style></defs><title>icon_send</title><path class="a" d="M27.82154,3.0547a.42038.42038,0,0,0-.5354-.08923L2.30116,14.298a.562.562,0,0,0-.2677.71385l.2677.2677,6.9601,2.94466,3.12312,8.477h0a1.23218,1.23218,0,0,0,.2677.35693.512.512,0,0,0,.62462-.17847l3.65852-5.53239,5.88932,2.40927a.562.562,0,0,0,.71386-.2677v-.08923L28,3.76856A1.38232,1.38232,0,0,0,27.82154,3.0547ZM13.36594,18.938l-.71386,5.26469-2.32-6.24625L21.0399,10.01481l-7.4955,8.74474C13.36594,18.75955,13.36594,18.84878,13.36594,18.938Zm9.1909,3.39082-5.71085-2.32a.512.512,0,0,0-.62463.17847l-2.58773,3.92621.71386-4.81854L24.87688,7.07015a.465.465,0,0,0-.08924-.71386.43129.43129,0,0,0-.62462,0L9.529,17.15337,3.8181,14.74411,26.66152,4.39318Z"/></svg>