<svg xmlns="http://www.w3.org/2000/svg" viewBox="0 0 30 30"><defs><style>.a{fill:#666;}</style></defs><title>icon_deleat</title><path class="a" d="M10.65056,23.26394H9.49071v-10.342h1.15985ZM19.6394,12.82528H18.47955V23.26394H19.6394Zm-4.54275,0H14.03346V23.26394h1.15985ZM27.56506,8.57249h-3.3829V25.487A2.55887,2.55887,0,0,1,21.66915,28H7.461a2.55886,2.55886,0,0,1-2.513-2.513h0V8.57249h-2.513V7.41264h8.8922V5.28625A3.28548,3.28548,0,0,1,14.42008,2h.09665A3.25913,3.25913,0,0,1,17.803,5.28625V7.316H27.4684v1.2565ZM12.39033,7.41264h4.25279V5.28625a2.14527,2.14527,0,0,0-2.12639-2.1264h-.19331a1.93048,1.93048,0,0,0-1.93309,2.1264ZM22.92565,8.57249H6.10781V25.487A1.32133,1.32133,0,0,0,7.461,26.84015H21.57249A1.32134,1.32134,0,0,0,22.92565,25.487Z"/></svg>