<svg xmlns="http://www.w3.org/2000/svg" viewBox="0 0 33.28 22.56"><defs><style>.cls-1{fill:#033333;}</style></defs><title>icon_download_mail</title><g id="レイヤー_2" data-name="レイヤー 2"><g id="マイメール"><path class="cls-1" d="M1.2,16.18V2.92l12.39,8.69a.6.6,0,0,0,.69,0L26.53,2.91V6.4h1.2V2.6A2.6,2.6,0,0,0,25.13,0H2.6A2.6,2.6,0,0,0,0,2.6V16.18a2.6,2.6,0,0,0,2.6,2.6H18.83v-1.2H2.6A1.4,1.4,0,0,1,1.2,16.18Zm1.4-15H25.13a1.39,1.39,0,0,1,1.05.49L13.93,10.38,1.54,1.69A1.39,1.39,0,0,1,2.6,1.2Zm30.68,15-6.16,6.34L21,16.22l.86-.84,4.7,4.84V9.15h1.2V20.22l4.7-4.84Z"/></g></g></svg>