<?xml version="1.0" encoding="utf-8"?>
<!-- Generator: Adobe Illustrator 22.1.0, SVG Export Plug-In . SVG Version: 6.00 Build 0)  -->
<svg version="1.1" id="レイヤー_1" xmlns="http://www.w3.org/2000/svg" xmlns:xlink="http://www.w3.org/1999/xlink" x="0px"
	 y="0px" viewBox="0 0 448 512" style="enable-background:new 0 0 448 512;" xml:space="preserve">
<g>
	<circle cx="224.0001" cy="144.5315" r="27.9921"/>
	<path d="M235.4862,192.5181h-22.9723c-6.821,0-12.2706,5.6804-11.9867,12.4963v166.9531
		c-0.2839,6.8162,5.1658,12.4966,11.9867,12.4966h22.9723c6.8215,0,12.2696-5.6804,11.9867-12.4966V205.0144
		C247.7558,198.1985,242.3077,192.5181,235.4862,192.5181z"/>
	<path d="M399.95,32.563H48.0491c-26.5024,0-47.9861,21.4839-47.9861,47.9866v351.9009c0,26.5027,21.4836,47.9866,47.9861,47.9866
		H399.95c26.5029,0,47.9871-21.4839,47.9871-47.9866V80.5496C447.9371,54.0469,426.4529,32.563,399.95,32.563z M415.9459,432.4504
		c0,8.8195-7.1761,15.9956-15.9959,15.9956H48.0491c-8.8193,0-15.9954-7.1761-15.9954-15.9956V80.5496
		c0-8.8195,7.1761-15.9956,15.9954-15.9956H399.95c8.8198,0,15.9959,7.1761,15.9959,15.9956V432.4504z"/>
</g>
</svg>
