<?xml version="1.0" encoding="utf-8"?>
<!-- Generator: Adobe Illustrator 23.0.3, SVG Export Plug-In . SVG Version: 6.00 Build 0)  -->
<svg version="1.1" id="レイヤー_1" xmlns="http://www.w3.org/2000/svg" xmlns:xlink="http://www.w3.org/1999/xlink" x="0px"
	 y="0px" viewBox="0 0 19 19" style="enable-background:new 0 0 19 19;" xml:space="preserve">
<style type="text/css">
	.st0{fill:#444444;}
</style>
<title>icon_sync_auto</title>
<g>
	<path class="st0" d="M10.9,6.4h-0.4l0,0H10.9c0-0.4-0.3-0.7-0.7-0.7S9.4,5.9,9.4,6.4v3.8l-1.9,0.7C7.2,10.9,7,11,6.9,11.2
		c-0.1,0.2-0.1,0.4,0,0.6C7,12,7.2,12.3,7.6,12.3c0.1,0,0.2,0,0.3,0l2.3-0.8c0.4-0.1,0.6-0.5,0.6-1L10.9,6.4z"/>
	<g>
		<path class="st0" d="M15.9,8C15.2,5.1,12.6,3,9.5,3C7.7,3,6,3.7,4.8,5H2.9c1.4-2.1,3.9-3.5,6.6-3.5c3.9,0,7.2,2.8,7.9,6.5H19
			l-2.2,2.7L14.5,8H15.9z"/>
		<path class="st0" d="M2.2,7.4l2.2,2.7H3c0.3,3.3,3.1,6,6.5,6c2.3,0,4.3-1.2,5.4-2.9h1.7c-1.3,2.6-4,4.4-7.1,4.4
			c-4.2,0-7.7-3.3-8-7.4H0L2.2,7.4z"/>
	</g>
</g>
</svg>
