<?xml version="1.0" encoding="utf-8"?>
<!-- Generator: Adobe Illustrator 22.1.0, SVG Export Plug-In . SVG Version: 6.00 Build 0)  -->
<svg version="1.1" id="レイヤー_1" xmlns="http://www.w3.org/2000/svg" xmlns:xlink="http://www.w3.org/1999/xlink" x="0px"
	 y="0px" viewBox="0 0 25 20" style="enable-background:new 0 0 25 20;" xml:space="preserve">
<style type="text/css">
	.st0{fill:#333333;}
</style>
<g>
	<path class="st0" d="M4.5356,17.9924c0.0233,0.4155,0.3376,0.7246,0.7614,0.7246h14.007c0.44,0,0.77-0.33,0.77-0.77V9.424
		L4.5356,17.9924z"/>
	<path class="st0" d="M17.6221,7.35H17.408V5.517c-0.05-2.616-2.228-4.658-4.954-4.7469l0.002-0.022
		c-0.053-0.001-0.102,0.011-0.155,0.011c-0.053,0-0.1021-0.012-0.155-0.011l0.002,0.022C9.422,0.859,7.244,2.901,7.194,5.517V7.46
		H5.407c-0.44-0.11-0.88,0.22-0.88,0.66v6.4515L17.6221,7.35z M9.261,5.566c0.029-1.521,1.432-2.793,3.04-2.755
		c1.608-0.038,3.011,1.234,3.04,2.755v1.8062l-6.08,0.0656V5.566z"/>
</g>
<path class="st0" d="M3.6836,17.4997c-0.2642,0-0.5205-0.1396-0.6572-0.3877c-0.2002-0.3633-0.0684-0.8193,0.2944-1.0195
	l16.4419-9.0664c0.3643-0.2012,0.8193-0.0679,1.0195,0.2944c0.1992,0.3628,0.0674,0.8188-0.2949,1.019L4.0454,17.4069
	C3.9307,17.4694,3.8062,17.4997,3.6836,17.4997z"/>
</svg>
