<svg xmlns="http://www.w3.org/2000/svg" viewBox="0 0 13 13"><defs><style>.cls-1{fill:#00aad4;}</style></defs><title>icon_processing</title><g id="レイヤー_2" data-name="レイヤー 2"><g id="レイヤー_2-2" data-name="レイヤー 2"><path class="cls-1" d="M6.5,0A6.5,6.5,0,1,0,13,6.5,6.5,6.5,0,0,0,6.5,0Zm4.178,7.483a.5.5,0,0,1-.37.21l-.039,0a.5.5,0,0,1-.358-.151L7.887,5.459a.5.5,0,0,1,.717-.7l1.175,1.21A3.279,3.279,0,1,0,8.87,8.827a.5.5,0,0,1,.707.707,4.348,4.348,0,1,1,1.152-3.862l.8-1.14a.5.5,0,1,1,.818.576Z"/></g></g></svg>