<?xml version="1.0" encoding="utf-8"?>
<!-- Generator: Adobe Illustrator 21.0.1, SVG Export Plug-In . SVG Version: 6.00 Build 0)  -->
<svg version="1.1" id="レイヤー_1" xmlns="http://www.w3.org/2000/svg" xmlns:xlink="http://www.w3.org/1999/xlink" x="0px"
	 y="0px" viewBox="0 0 25 20" style="enable-background:new 0 0 25 20;" xml:space="preserve">
<style type="text/css">
	.st0{fill:#333333;}
	.st1{fill:#414042;}
</style>
<title>icon_shared</title>
<g id="レイヤー_2">
	<g id="レイヤー_2-2">
		<path class="st0" d="M1.772,14.208h0.471v5.727H1.772V14.208z"/>
		<path class="st0" d="M3.792,14.208h1.351c1.759,0,2.624,1.092,2.624,2.844s-0.864,2.883-2.616,2.883H3.792V14.208z M5.096,19.535
			c1.508,0,2.176-0.997,2.176-2.483S6.605,14.6,5.096,14.6H4.264v4.935H5.096z"/>
		<path class="st0" d="M10.701,14.404h0.33L8.735,20H8.413L10.701,14.404z"/>
		<path class="st0" d="M12.19,14.208h1.486c1.295,0,2.09,0.424,2.09,1.611c0,1.147-0.785,1.697-2.058,1.697h-1.049v2.419h-0.471
			L12.19,14.208z M13.614,17.123c1.13,0,1.674-0.386,1.674-1.304s-0.567-1.221-1.705-1.221h-0.916v2.522L13.614,17.123z"/>
		<path class="st0" d="M16.403,14.208h0.487l0.692,3.316c0.134,0.62,0.259,1.241,0.386,1.869h0.031
			c0.141-0.628,0.291-1.249,0.441-1.869l0.872-3.316h0.463l0.879,3.316c0.15,0.62,0.291,1.241,0.441,1.869h0.04
			c0.117-0.628,0.235-1.249,0.36-1.869l0.692-3.316h0.464l-1.257,5.727h-0.534l-1.017-3.826c-0.095-0.456-0.196-0.849-0.298-1.289
			h-0.032c-0.095,0.441-0.212,0.832-0.314,1.289l-0.982,3.826h-0.534L16.403,14.208z"/>
		<circle class="st1" cx="17.134" cy="4.134" r="3.116"/>
		<path class="st1" d="M20.068,7.642c-1.688,1.413-4.142,1.423-5.841,0.023l-0.017,0.011c1.205,1.234,1.982,2.823,2.214,4.533h6.805
			C22.967,10.269,21.792,8.571,20.068,7.642z"/>
		<circle class="st1" cx="8.413" cy="3.399" r="3.399"/>
		<path class="st1" d="M5.24,7.252c-1.855,1.02-3.116,2.859-3.398,4.957h13.215c-0.284-2.117-1.564-3.971-3.444-4.986
			C9.772,8.766,7.094,8.777,5.24,7.249V7.252z"/>
	</g>
</g>
</svg>
