<?xml version="1.0" encoding="utf-8"?>
<!-- Generator: Adobe Illustrator 21.1.0, SVG Export Plug-In . SVG Version: 6.00 Build 0)  -->
<svg version="1.1" id="レイヤー_1" xmlns="http://www.w3.org/2000/svg" xmlns:xlink="http://www.w3.org/1999/xlink" x="0px"
	 y="0px" viewBox="0 0 18 18" style="enable-background:new 0 0 18 18;" xml:space="preserve">
<style type="text/css">
	.st0{fill:#333333;}
</style>
<title>icon_download</title>
<g id="レイヤー_2">
	<g id="管理ページ">
		<polygon class="st0" points="8.9,1 0.8,1 0.8,16 4.8422,16 4.8422,15 1.8,15 1.8,2 8.3,2 8.3,5 11.6,5 11.8,5.2 11.8,7.6967 
			12.8,7.155 12.8,4.8 		"/>
	</g>
</g>
<g id="レイヤー_2_2_">
	<g id="管理ページ_2_">
		<path class="st0" d="M9.7963,11.0779c0.711,0,1.1887,0.6532,1.1887,1.2633c0,0.6221-0.5666,1.1887-1.1887,1.1887
			c-0.6554,0-1.1887-0.5332-1.1887-1.1887C8.6076,11.621,9.1186,11.0779,9.7963,11.0779 M9.7963,10.1779
			c-1.1935,0-2.0887,0.9697-2.0887,2.1633c0,1.1935,0.9697,2.0887,2.0887,2.0887s2.0887-0.9697,2.0887-2.0887
			S10.9898,10.1779,9.7963,10.1779L9.7963,10.1779z"/>
	</g>
</g>
<g id="レイヤー_2_1_">
	<g id="管理ページ_1_">
		<path class="st0" d="M9.2524,17.53H9.2412c-0.4165,0-0.769-0.2949-0.8779-0.7324l-0.083-0.6162
			c-0.0146-0.0068-0.0298-0.0127-0.0449-0.0195L7.8047,16.489c-0.3779,0.2588-0.897,0.21-1.1987-0.0986L5.791,15.6208
			c-0.3018-0.3047-0.354-0.7266-0.1494-1.1406l0.3755-0.5146c-0.0142-0.0361-0.0269-0.0713-0.0386-0.1055l-0.5449-0.0732
			c-0.002,0-0.0039,0-0.0059,0c-0.3906,0-0.77-0.4092-0.77-0.8936v-1.1162c0-0.418,0.2915-0.7725,0.7256-0.8828l0.6138-0.085
			c0.0063-0.0146,0.0127-0.0293,0.019-0.0449c0.0054-0.0117,0.0103-0.0234,0.0151-0.0352l-0.3477-0.4697
			C5.3853,9.9641,5.3853,9.405,5.7251,9.0612l0.8398-0.894c0.335-0.2251,0.8472-0.2783,1.1777,0.0571l0.4458,0.3062
			C8.2183,8.5168,8.2485,8.5027,8.2798,8.489L8.354,7.9236c-0.0039-0.397,0.4043-0.7822,0.8872-0.7822h1.1016
			c0.418,0,0.7705,0.2949,0.8789,0.7339l0.082,0.6147c0.0195,0.0078,0.0381,0.0156,0.0566,0.0244l0.4873-0.3423
			c0.375-0.2524,0.8789-0.2021,1.1855,0.1074l0.7715,0.7822c0.3271,0.21,0.3428,0.7681,0.1104,1.1216l-0.4004,0.5283
			c0.0127,0.0342,0.0254,0.0674,0.0361,0.0996l0.5449,0.0732c0.4834,0.1191,0.7754,0.4746,0.7754,0.8926v1.1162
			c0,0.4189-0.292,0.7744-0.7256,0.8838l-0.6045,0.083c-0.0078,0.0176-0.0146,0.0361-0.0225,0.0537l0.3271,0.4424
			c0.2539,0.3848,0.207,0.8906-0.0947,1.1973l-0.7725,0.7822c-0.2939,0.2959-0.7158,0.3506-1.1299,0.1406l-0.084-0.0547
			l-0.3809-0.3154c-0.0273,0.0098-0.0537,0.0195-0.0801,0.0293l-0.0732,0.5566c-0.1172,0.4873-0.4697,0.7822-0.8877,0.7822
			L9.2524,17.53z M8.1782,15.0759l0.2666,0.1797c0.1133,0.0762,0.2373,0.1182,0.3813,0.168l0.2637,0.0898l0.1562,1.1152
			l1.0742-0.0537l0.165-1.1162l0.375-0.125c0.1191-0.0381,0.2539-0.0801,0.333-0.1338l0.2793-0.1885l0.79,0.6543l0.8467-0.7441
			l-0.6699-0.9531l0.1738-0.2627c0.0742-0.1133,0.1162-0.2393,0.165-0.3848l0.0889-0.2666l1.1074-0.1602l-0.0039-1.1172
			l-1.1006-0.1494l-0.124-0.3799c-0.0381-0.1211-0.0801-0.2578-0.1338-0.3398l-0.1748-0.2656l0.7275-0.9585l-0.7725-0.772
			l-0.9971,0.6768l-0.2559-0.1729c-0.1162-0.0776-0.2422-0.1206-0.3887-0.1699l-0.2656-0.0894l-0.1475-1.1157l-1.0967,0.001
			l-0.145,1.1392L8.8003,9.2556C8.7002,9.281,8.6157,9.3239,8.5366,9.3615C8.4492,9.403,8.3657,9.4411,8.2832,9.469L8.0674,9.5417
			L7.1641,8.9089L6.376,9.6823l0.665,0.8975l-0.0723,0.2217c-0.0312,0.0947-0.0771,0.2041-0.1235,0.3145
			c-0.0366,0.085-0.0732,0.1709-0.0972,0.2441l-0.0884,0.2676l-1.106,0.1494l0.0044,1.1162l1.1011,0.1504l0.1235,0.3779
			c0.0376,0.1221,0.0806,0.2598,0.1343,0.3418l0.1729,0.2627L6.4062,14.947c-0.001-0.0029,0.0112,0.0322,0.0117,0.0322
			l0.8179,0.7686L8.1782,15.0759z M13.1865,9.7048c0.0098,0.0151,0.0254,0.0317,0.0459,0.0459L13.1865,9.7048z M13.1807,9.6638
			c0,0.0005-0.001,0.001-0.001,0.0015L13.1807,9.6638z"/>
	</g>
</g>
</svg>
