<?xml version="1.0" encoding="utf-8"?>
<!-- Generator: Adobe Illustrator 23.0.3, SVG Export Plug-In . SVG Version: 6.00 Build 0)  -->
<svg version="1.1" id="レイヤー_1" xmlns="http://www.w3.org/2000/svg" xmlns:xlink="http://www.w3.org/1999/xlink" x="0px"
	 y="0px" viewBox="0 0 19 19" style="enable-background:new 0 0 19 19;" xml:space="preserve">
<style type="text/css">
	.st0{fill:#444444;}
</style>
<title>icon_sync_manual</title>
<g>
	<g>
		<path class="st0" d="M15.9,8C15.2,5.1,12.6,3,9.5,3C7.7,3,6,3.7,4.8,5H2.9c1.4-2.1,3.9-3.5,6.6-3.5c3.9,0,7.2,2.8,7.9,6.5H19
			l-2.2,2.7L14.5,8H15.9z"/>
		<path class="st0" d="M2.2,7.4l2.2,2.7H3c0.3,3.3,3.1,6,6.5,6c2.3,0,4.3-1.2,5.4-2.9h1.7c-1.3,2.6-4,4.4-7.1,4.4
			c-4.2,0-7.7-3.3-8-7.4H0L2.2,7.4z"/>
	</g>
	<g>
		<path class="st0" d="M7.3,6.8h1.3C8.9,6.8,9,6.9,9,7.2v4.7c0,0.2-0.2,0.4-0.4,0.4H7.3c-0.2,0-0.4-0.2-0.4-0.4V7.2
			C6.9,6.9,7.1,6.8,7.3,6.8z"/>
		<path class="st0" d="M10.6,6.8H12c0.2,0,0.4,0.2,0.4,0.4v4.7c0,0.2-0.2,0.4-0.4,0.4h-1.3c-0.2,0-0.4-0.2-0.4-0.4V7.2
			C10.2,6.9,10.4,6.8,10.6,6.8z"/>
	</g>
</g>
</svg>
