<svg xmlns="http://www.w3.org/2000/svg" viewBox="0 0 42.68134 42.6814"><defs><style>.a{fill:#666;}</style></defs><title>icon_devicesecurity</title><path class="a" d="M21.34064,0a21.3407,21.3407,0,1,0,21.3407,21.34058A21.36491,21.36491,0,0,0,21.34064,0Zm0,39.57861A18.22432,18.22432,0,0,1,7.33618,9.676L16.89,19.22974v.49316h-4.5581l8.79529,8.64746,2.47259-2.43091,4.69916,4.699H10.2749V21.34058H9.11133V31.802H29.46252l3.543,3.543A18.151,18.151,0,0,1,21.34064,39.57861ZM35.20618,33.158,33.1427,31.09448v-9.7539H31.97919v8.59057l-6.16712-6.167,4.11029-4.04126h-4.5581V9.39331H16.89v5.449L9.523,7.47559A18.21565,18.21565,0,0,1,35.20618,33.158Z"/></svg>