<svg xmlns="http://www.w3.org/2000/svg" viewBox="0 0 26.45703 18.07697"><defs><style>.a{fill:#999;}.b{fill:#666;}</style></defs><title>icon_edit3</title><rect class="a" y="11.33338" width="10.99987" height="0.99994"/><rect class="a" y="5.66669" width="11.00006" height="0.99994"/><rect class="b" x="0.00006" width="20.99969" height="0.99994"/><rect class="a" y="17.00006" width="10.99987" height="0.99994"/><path class="b" d="M26.35613,6.1854A2.9613,2.9613,0,0,0,24.2716,4.06392a1.93506,1.93506,0,0,0-1.93066.45983L14.33616,12.6413,12.51543,18.077l5.37667-1.85082L25.84951,8.152A1.78925,1.78925,0,0,0,26.35613,6.1854Zm-2.43266-.98967a1.7983,1.7983,0,0,1,1.29326,1.31352l.00924.03068a.70255.70255,0,0,1-.0648.60825L23.30846,5.26431A.76678.76678,0,0,1,23.92347,5.19573Zm-8.81334,8.8657,1.37369,1.39691-2.08168.71687Zm2.45623.80855L15.687,12.95887l6.77323-6.868,1.8789,1.91052Z"/></svg>