<svg xmlns="http://www.w3.org/2000/svg" viewBox="0 0 12.71239 10"><defs><style>.a{fill:#4a4a4a;}</style></defs><title>icon_team</title><path class="a" d="M9.47675,10H0V8.93589a2.56943,2.56943,0,0,1,2.581-2.552H6.89537a2.56951,2.56951,0,0,1,2.58138,2.552Z"/><path class="a" d="M4.73816,5.10361a2.56968,2.56968,0,0,1-2.58095-2.552,2.58112,2.58112,0,0,1,5.1619,0A2.56967,2.56967,0,0,1,4.73816,5.10361Z"/><path class="a" d="M12.71239,10H11.8649V8.93589A1.70992,1.70992,0,0,0,10.56637,7.288l.20857-.821a2.55578,2.55578,0,0,1,1.93745,2.4684Z"/><path class="a" d="M8.6173,5.02657l-.20772-.82206A1.71743,1.71743,0,0,0,9.658,2.97564,1.66838,1.66838,0,0,0,9.47675,1.697,1.7187,1.7187,0,0,0,8.40958.90327L8.6173.0812a2.56074,2.56074,0,0,1,1.58863,1.184,2.51038,2.51038,0,0,1,.2723,1.92381A2.56586,2.56586,0,0,1,8.6173,5.02657Z"/></svg>