<?xml version="1.0" encoding="utf-8"?>
<!-- Generator: Adobe Illustrator 21.0.1, SVG Export Plug-In . SVG Version: 6.00 Build 0)  -->
<svg version="1.1" id="レイヤー_1" xmlns="http://www.w3.org/2000/svg" xmlns:xlink="http://www.w3.org/1999/xlink" x="0px"
	 y="0px" viewBox="0 0 25 20" style="enable-background:new 0 0 25 20;" xml:space="preserve">
<style type="text/css">
	.st0{fill:#414042;}
</style>
<path class="st0" d="M18.101,8.7h-1.3h-0.1l-1.8,0.1H9.679L9.35,6.311c-0.152-1.375,0.964-2.686,2.418-2.84
	c1.454-0.155,2.83,0.891,2.982,2.266l0.015,0.134l0.779,0.207l-0.71,0.413l0.058,0.523l1.973-0.21l-0.142-1.278
	c-0.167-2.466-2.461-4.209-5.057-3.933C9.07,1.87,7.21,4.054,7.481,6.509L7.782,8.8H6.601c-0.4-0.1-0.8,0.2-0.8,0.6v7.8
	c0,0.4,0.3,0.7,0.7,0.7h11.6c0.4,0,0.7-0.3,0.7-0.7V9.4C18.801,9,18.501,8.7,18.101,8.7z M12.901,13.31v1.44
	c0,0.36-0.24,0.6-0.6,0.6c-0.36,0-0.6-0.24-0.6-0.6v-1.44c-0.36-0.24-0.6-0.6-0.6-0.96c0-0.72,0.48-1.2,1.2-1.2
	c0.72,0,1.2,0.48,1.2,1.2C13.501,12.83,13.261,13.19,12.901,13.31z"/>
</svg>
