<svg xmlns="http://www.w3.org/2000/svg" viewBox="0 0 12.9648 11"><defs><style>.a{fill:#78818c;}</style></defs><title>icon_download</title><path class="a" d="M11.1353,11H1.8291A1.671,1.671,0,0,1,0,9.5v-2a.5.5,0,0,1,1,0v2c0,.2363.3545.5.8291.5h9.3062c.4746,0,.8295-.2637.8295-.5v-2a.5.5,0,0,1,1,0v2A1.6715,1.6715,0,0,1,11.1353,11Z"/><path class="a" d="M6.4824,8a.4994.4994,0,0,1-.3286-.123L2.83,4.9805a.5.5,0,0,1,.6572-.7539l2.9951,2.61,2.9947-2.61a.5.5,0,0,1,.6572.7539L6.811,7.877A.4994.4994,0,0,1,6.4824,8Z"/><path class="a" d="M6.4824,8a.5.5,0,0,1-.5-.5V.5a.5.5,0,0,1,1,0v7A.5.5,0,0,1,6.4824,8Z"/></svg>