<svg xmlns="http://www.w3.org/2000/svg" viewBox="0 0 15 15"><defs><style>.a{fill:#414042;}</style></defs><title>icon_settingbar</title><path class="a" d="M14.5,2h-2V1.5a1.5,1.5,0,0,0-3,0V2H.5a.5.5,0,0,0,0,1h9v.5a1.5,1.5,0,0,0,3,0V3h2a.5.5,0,0,0,0-1Zm-3,1.5a.5.5,0,0,1-1,0v-2a.5.5,0,0,1,1,0Z"/><path class="a" d="M14.5,12h-2v-.5a1.5,1.5,0,0,0-3,0V12H.5a.5.5,0,0,0,0,1h9v.5a1.5,1.5,0,0,0,3,0V13h2a.5.5,0,0,0,0-1Zm-3,1.5a.5.5,0,0,1-1,0v-2a.5.5,0,0,1,1,0Z"/><path class="a" d="M0,7.5A.49971.49971,0,0,0,.5,8h2v.5a1.5,1.5,0,0,0,3,0V8h9a.5.5,0,0,0,0-1h-9V6.5a1.5,1.5,0,0,0-3,0V7H.5A.49971.49971,0,0,0,0,7.5Zm3.5-1a.5.5,0,0,1,1,0v2a.5.5,0,0,1-1,0Z"/></svg>