<?xml version="1.0" encoding="utf-8"?>
<!-- Generator: Adobe Illustrator 21.0.1, SVG Export Plug-In . SVG Version: 6.00 Build 0)  -->
<svg version="1.1" id="レイヤー_1" xmlns="http://www.w3.org/2000/svg" xmlns:xlink="http://www.w3.org/1999/xlink" x="0px"
	 y="0px" viewBox="0 0 25 20" style="enable-background:new 0 0 25 20;" xml:space="preserve">
<style type="text/css">
	.st0{fill:#414042;}
	.st1{fill:#333333;}
</style>
<title>icon_personal</title>
<g id="レイヤー_2">
	<g id="レイヤー_2-2">
		<circle class="st0" cx="12.464" cy="3.351" r="3.341"/>
		<path class="st0" d="M9.347,7.138C7.523,8.14,6.283,9.948,6.005,12.01h12.989c-0.28-2.082-1.54-3.904-3.389-4.9
			c-1.809,1.516-4.442,1.526-6.263,0.025L9.347,7.138z"/>
		<path class="st1" d="M7.249,14.371h1.456c1.274,0,2.054,0.417,2.054,1.583c0,1.127-0.772,1.668-2.023,1.668H7.714V20H7.249V14.371
			z M8.649,17.236c1.112,0,1.645-0.379,1.645-1.282s-0.556-1.2-1.675-1.2h-0.9v2.479L8.649,17.236z"/>
		<path class="st1" d="M11.958,14.371h0.479l0.679,3.259c0.131,0.609,0.255,1.22,0.379,1.837h0.03
			c0.139-0.617,0.286-1.228,0.433-1.837l0.856-3.259h0.456l0.864,3.259c0.147,0.609,0.286,1.22,0.433,1.837h0.039
			c0.115-0.617,0.231-1.228,0.354-1.837l0.68-3.259h0.456L16.861,20h-0.525l-1-3.76c-0.093-0.448-0.193-0.834-0.293-1.267h-0.027
			c-0.093,0.433-0.208,0.818-0.309,1.267L13.741,20h-0.525L11.958,14.371z"/>
	</g>
</g>
</svg>
