<svg xmlns="http://www.w3.org/2000/svg" viewBox="0 0 29.5992 30"><defs><style>.a{fill:#666;}</style></defs><title>icon_xls</title><path class="a" d="M29.5992,4.1464V24.8658a.9978.9978,0,0,1-.9867.9866H17.76V30L0,25.8993V4.1007L17.76,0V3.16h10.853A1,1,0,0,1,29.5992,4.1464ZM10.4214,21.2744l2.8834.169-3.33-6.3047,3.2374-6.1973-2.7132.1542-1.65,3.669a2.2606,2.2606,0,0,0-.185.5156c-.0407.18-.0875.3576-.1381.5327H8.495a3.5778,3.5778,0,0,0-.132-.5167c-.0567-.17-.1147-.3318-.1764-.4859L6.7683,9.3262l-2.6367.1394,2.8057,5.7188-3.0524,5.72,2.5591.1381L8.1558,17.297c.01-.0308.0271-.0851.053-.1628s.0518-.1591.0777-.2466.0481-.169.0691-.2467a.7111.7111,0,0,0,.0308-.1616h.0309c.0209.0827.0382.1641.0542.2467s.0333.164.0543.2467a.8474.8474,0,0,0,.1073.3083Zm18.1911,3.5914V4.1464H17.76V6.12h2.96V8.0929H17.76V9.08h2.96v1.9733H17.76V12.04h2.96v1.9732H17.76v.9867h2.96v1.9733H17.76v.9866h2.96v1.9733H17.76v.9866h2.96v1.9733H17.76v1.9733ZM26.6393,6.12V8.0929H21.7061V6.12Zm0,2.96v1.9733H21.7061V9.08Zm0,2.96v1.9732H21.7061V12.04Zm0,2.96v1.9733H21.7061V14.9994Zm0,2.96v1.9733H21.7061V17.9593Zm0,2.96v1.9733H21.7061V20.9192Z"/></svg>