<svg xmlns="http://www.w3.org/2000/svg" viewBox="0 0 25.001 24.7017"><defs><style>.a{fill:#444;}</style></defs><title>icon_reject</title><path class="a" d="M12.5,0A12.44,12.44,0,0,0,0,12.3506a12.5014,12.5014,0,0,0,25.001,0A12.4409,12.4409,0,0,0,12.5,0Zm0,23.3013A11.0383,11.0383,0,0,1,1.4,12.3506a11.1011,11.1011,0,0,1,22.2,0A11.0385,11.0385,0,0,1,12.5,23.3013Z"/><path class="a" d="M17.62,7.2959a.7.7,0,0,0-.99-.0063l-4.1294,4.077L8.3711,7.29a.7.7,0,0,0-.9844.996l4.1171,4.065L7.3867,16.4155a.7.7,0,1,0,.9844.9961l4.1294-4.077,4.1294,4.077a.7.7,0,0,0,.9844-.9961l-4.1172-4.0649,4.1172-4.065A.7.7,0,0,0,17.62,7.2959Z"/></svg>