<svg xmlns="http://www.w3.org/2000/svg" viewBox="0 0 12.0771 12.8462"><defs><style>.a{fill:#444;}</style></defs><title>icon_mybox</title><path class="a" d="M12.0771,12.8462h-1V11.4746A2.259,2.259,0,0,0,8.8076,9.231H3.27A2.2591,2.2591,0,0,0,1,11.4746v1.3716H0V11.4746A3.26,3.26,0,0,1,3.27,8.231H8.8076a3.26,3.26,0,0,1,3.2695,3.2436Z"/><path class="a" d="M6.0386,6.4873A3.26,3.26,0,0,1,2.77,3.2437a3.2691,3.2691,0,0,1,6.5381,0A3.26,3.26,0,0,1,6.0386,6.4873ZM6.0386,1a2.2438,2.2438,0,1,0,2.269,2.2437A2.259,2.259,0,0,0,6.0386,1Z"/></svg>