<?xml version="1.0" encoding="utf-8"?>
<!-- Generator: Adobe Illustrator 22.1.0, SVG Export Plug-In . SVG Version: 6.00 Build 0)  -->
<svg version="1.1" xmlns="http://www.w3.org/2000/svg" xmlns:xlink="http://www.w3.org/1999/xlink" x="0px" y="0px"
	 viewBox="0 0 30 30" style="enable-background:new 0 0 30 30;" xml:space="preserve">
<style type="text/css">
	.st0{display:none;}
	.st1{display:inline;fill:#666666;}
	.st2{display:inline;}
	.st3{fill:none;stroke:#666666;stroke-linecap:round;stroke-linejoin:round;stroke-miterlimit:10;}
	.st4{fill:#666666;}
	.st5{display:inline;fill:none;stroke:#666666;stroke-width:2.1638784;stroke-linecap:round;stroke-linejoin:round;}
</style>
<g id="レイヤー_1" class="st0">
	<title>icon_approve_thin</title>
	<rect x="3.9688027" y="26.7272625" class="st1" width="22.0618458" height="1.0839164"/>
	<path class="st1" d="M23.4530392,18.7610016h-5.6277637l-0.0238838-0.0252571
		c-0.742691-0.7831287-1.1179295-1.8447781-1.0323048-2.9206724c0-1.1220751,0.8258629-2.6459646,1.6249123-4.119524
		c0.8919315-1.6461449,1.7354565-3.201787,1.7354565-4.5734062c-0.0311089-2.7547283-2.2890205-4.9629068-5.0437584-4.9326673
		l-0.0833635,0.0017388c-2.754283-0.0791461-5.0512295,2.0894802-5.1303759,4.8437624
		C9.871913,7.0365481,9.8718681,7.0381203,9.8718243,7.0396929L9.8697205,7.1231484
		c0,1.370338,0.8431578,2.9257064,1.7359142,4.5723987c0.7996922,1.4758472,1.6254625,2.9990959,1.6254625,4.1262045
		c0.0839834,1.0739202-0.2914495,2.1330748-1.0330381,2.9143591l-0.0237007,0.0252552H6.5515347
		c-0.0935216-0.0061016-0.1866465-0.0091515-0.2793746-0.0091515c-1.8702803-0.0050678-3.5202792,1.2228012-4.0525398,3.0157509
		C2.084826,22.3847942,2.0112624,23.0134258,2,23.6447105v0.8133259c0.0022621,0.7892323,0.6415002,1.4284706,1.4307334,1.4307327
		h23.1384411C27.3583813,25.8864079,27.9975872,25.2472439,28,24.4580364v-0.8144245
		c-0.0117168-0.6316624-0.0857391-1.2606277-0.220993-1.8777523C27.2171516,19.8758411,25.4202957,18.6277256,23.4530392,18.7610016
		z M12.1848822,10.4822378c-0.6460876-1.0149355-1.0655613-2.1573362-1.2297812-3.3492064l-0.0009155-0.0060396V7.1211352
		c0.038332-2.1344557,1.7780085-3.845572,3.9128065-3.8485675l0.0667095,0.0004575l0.069272,0.0017385
		c2.1575832-0.0693259,3.9648228,1.6194952,4.0416489,3.7768247l0.0015564,0.0691805
		c-0.1626511,1.1962218-0.58251,2.3430104-1.2306957,3.3614688l-0.0236092,0.0375185h-5.5836573L12.1848822,10.4822378z
		 M12.8551807,11.7276669l-0.0795202-0.1239939h4.4492292l-0.0793381,0.1239939
		c-0.7916794,1.239336-1.2913618,2.6423798-1.461298,4.1031437c-0.0271177,0.9814053,0.2095098,1.9521198,0.685215,2.810955
		l0.0660686,0.1196003h-2.8708l0.0659771-0.1193275c0.47645-0.8612251,0.7127867-1.8346348,0.6842995-2.8184566
		c-0.1704588-1.4582376-0.6697721-2.8587437-1.46029-4.0959148H12.8551807z M26.9159908,24.458952
		c-0.0033207,0.1899624-0.1564884,0.3431702-0.3464489,0.3465424H3.4306419
		c-0.1905012-0.0025921-0.344486-0.1560497-0.3477318-0.3465424v-0.8154297
		c0.0113385-0.5458183,0.0747359-1.0893097,0.1893308-1.623085c0.4454129-1.4094658,1.8152816-2.3159351,3.2867062-2.1748791
		h16.889061c1.4651394-0.1395512,2.8292809,0.7614689,3.2759991,2.1638069
		c0.1163082,0.5366154,0.1806602,1.0831871,0.1921673,1.632143L26.9159908,24.458952z"/>
</g>
<g id="レイヤー_2" class="st0">
	<path class="st1" d="M26.1428833,6.8057861H15l-2.1450195-2.8953247c-0.3497314-0.4692993-0.9068604-0.746521-1.4995117-0.746521
		c-0.0016479,0-0.0031738,0-0.0048218,0H3.8571167C2.8313599,3.1639404,2,3.979126,2,4.9848633v20.0302734
		c0,1.0057373,0.831543,1.8209229,1.8571167,1.8209229h22.2857666C27.1686401,26.8360596,28,26.020874,28,25.0151367V8.626709
		C28,7.6209717,27.168457,6.8057861,26.1428833,6.8057861z M26.6663818,25.0151367
		c0,0.2687378-0.2349243,0.4873047-0.5234985,0.4873047H3.8571167c-0.2887573,0-0.5234985-0.2185669-0.5234985-0.4873047V12.3433838
		H23.3125c0.3681641,0,0.6669922-0.2988281,0.6669922-0.6669922s-0.2988281-0.6669922-0.6669922-0.6669922H3.3336182V4.9848633
		c0-0.2687378,0.2349243-0.4873047,0.5234985-0.4873047h7.4935303h0.0048218c0.1713867,0,0.3322754,0.0785522,0.4279785,0.2069092
		l2.1449585,2.8953247C14.1799927,7.939209,14.5773926,8.1394043,15,8.1394043h11.1428833
		c0.2887573,0,0.5234985,0.2185669,0.5234985,0.4873047V25.0151367z"/>
</g>
<g id="レイヤー_3" class="st0">
	<path class="st1" d="M3.6557591,25.6513367c-0.4592831,0-0.8827302-0.1945362-1.1869686-0.5075512
		c-0.0241344-0.0219402-0.0468061-0.0468063-0.0672836-0.0731354c-0.2354922-0.2735214-0.384686-0.6231022-0.4007757-1.0063267
		L2,6.4908991c0-1.1833119,0.9726853-2.1457586,2.1676989-2.1457586h5.0923367c0.0021935,0,0.0043879,0,0.0065823,0
		c0.6859989,0,1.3390875,0.32691,1.7457142,0.8768797l1.6345501,2.2166986h7.3573027
		c0.3305683,0,0.5997009,0.2684026,0.5997009,0.5989695c0,0.3305664-0.2691326,0.5989695-0.5997009,0.5989695h-7.660079
		c-0.1901493,0-0.3693275-0.0899553-0.4819546-0.2435369l-1.8129978-2.4595046
		c-0.1813726-0.2442684-0.4746408-0.3905368-0.78473-0.3905368c-0.0007315,0-0.0014629,0-0.0029259,0H4.1676989
		c-0.5346115,0-0.9697602,0.4249101-0.9697602,0.9478197V21.456358l2.6620862-9.1271534
		c0-0.0270596,0.000731-0.0504627,0.000731-0.0592384c0.0051198-0.0738659,0.0226717-0.1462688,0.0533881-0.212821
		c0.412477-0.8995504,1.2886252-1.4838934,2.2854447-1.524848h17.8367081
		c0.6567459-0.0117016,1.2549839,0.2932682,1.6294308,0.8271475c0.3320293,0.4753733,0.4241791,1.0897007,0.2428055,1.6433268
		l-3.2808018,11.6539402c-0.1799107,0.6114025-0.6801472,1.0502071-1.3836994,0.9931622L3.7047589,25.6513367
		C3.6886694,25.6513367,3.6718485,25.6513367,3.6557591,25.6513367z M3.5753114,24.4431591
		c0.036567,0.0073128,0.0738654,0.0131645,0.1118953,0.0102386l19.5787659-0.0014629
		c0.1214027-0.0058498,0.1886864-0.0482674,0.2106266-0.1272526l3.2866516-11.6700296
		c0.0716724-0.2230597,0.0409565-0.4366121-0.0789833-0.6077461c-0.1448059-0.2055073-0.4285679-0.2939997-0.6333427-0.3166714
		H8.2244549c-0.4834175,0.0204782-0.9288049,0.2947311-1.1694169,0.724761
		c-0.0036564,0.0453424-0.0102386,0.0921488-0.0212088,0.1272535L3.5753114,24.4431591z"/>
</g>
<g id="レイヤー_5" class="st0">
	<path class="st1" d="M28.0972233,11.1101675L18.3310661,11.10571l-2.9977427-8.5757504
		c-0.1102066-0.3171589-0.4091253-0.5297771-0.7448864-0.5298326l0,0c-0.3357992-0.0000184-0.6349888,0.21205-0.7461853,0.5289042
		l-3.0085144,8.5731506L1.9036509,11.096796H1.9027224c-0.4366201,0.0001326-0.7904636,0.3541899-0.7903315,0.7908106
		c0.0000767,0.25354,0.1217518,0.4916611,0.3271689,0.6402769l7.1127214,5.135088l-2.9814005,8.4944096
		c-0.1388555,0.4139519,0.0841546,0.8620911,0.498107,1.000946c0.4060788,0.1362133,0.846777-0.0757275,0.9938931-0.4779854
		l3.1942248-9.1013126c0.1446085-0.4116516-0.0718727-0.8625889-0.4835243-1.0071983
		c-0.0002689-0.0000935-0.0005398-0.0001869-0.0008087-0.0002823c-0.0126286-0.0044575-0.0256281-0.0014858-0.0382557-0.0053864
		l-5.3843126-3.8867388l7.0419655,0.0039005l0,0l0.0269289-0.0048294c0.0510874-0.0051479,0.1015377-0.0153494,0.1506109-0.0304565
		c0.0510302-0.0081654,0.1011562-0.021225,0.149682-0.0389986c0.135623-0.0519352,0.2477989-0.15131,0.3157091-0.2796803
		c0.0363655-0.0474749,0.06709-0.0990143,0.0915556-0.1535826l0.0124426-0.0209856l2.4463673-6.9728818l2.4385681,6.9743667
		l0.0113277,0.0146713c0.0519447,0.1338053,0.1401844,0.2504692,0.2547951,0.3368788
		c0.0239639,0.0186882,0.0491524,0.0357504,0.0753994,0.0510702c0.1202774,0.0795593,0.2605,0.1237049,0.4046631,0.1273985
		l10.3270035,0.0046425c0.4365177,0,0.7903862-0.3538666,0.7903862-0.7903852
		C28.8876095,11.4640341,28.533741,11.1101675,28.0972233,11.1101675z"/>
	<path class="st1" d="M23.7631054,13.9435558l-4.4266014,3.0697994c-0.0150414,0.0103989-0.0222855,0.026371-0.0371418,0.0371418
		c-0.0406189,0.0341053-0.0774746,0.0724564-0.1099415,0.114397c-0.0332127,0.0366039-0.0628719,0.0762749-0.0885849,0.1184845
		c-0.0221024,0.0441132-0.0400696,0.0901814-0.0536709,0.1376095c-0.0383205,0.0913124-0.051157,0.1913071-0.0371418,0.2893372
		c0.0017776,0.0550728,0.0094337,0.1097965,0.0228405,0.1632404c0.0046425,0.0165272,0,0.0330582,0.0068722,0.0493984
		l2.5070953,7.1721497l-6.3392334-4.5766544l-0.0222855-0.0102139c-0.0479136-0.0284271-0.0987921-0.0515308-0.1517258-0.0688992
		c-0.0420971-0.0209866-0.0859728-0.0382042-0.1311121-0.0514431c-0.0482264-0.0059795-0.0968943-0.0075951-0.1454115-0.0048275
		c-0.0518284-0.0043106-0.1039553-0.0035038-0.1556253,0.0024147c-0.0411901,0.0113564-0.081377,0.0260754-0.1201553,0.0440121
		c-0.0583878,0.0171013-0.1145058,0.0411682-0.16714,0.0716839l-0.0202417,0.0087299l-3.2956228,2.2842426
		c-0.3556271,0.2533131-0.43857,0.746954-0.1852579,1.102581c0.2489424,0.349493,0.7312231,0.4366035,1.0866985,0.1962814
		l2.8356171-1.9653778l7.9257631,5.7223053c0.3535042,0.2559128,0.847538,0.1768017,1.1034508-0.1767044
		c0.151762-0.2096329,0.1912518-0.4802933,0.1057129-0.7245502l-3.1385136-8.9785576l3.9329815-2.7275343
		c0.3589783-0.2489262,0.4481945-0.7417297,0.1992683-1.100708s-0.7417297-0.4481926-1.100708-0.1992674l0,0L23.7631054,13.9435558z
		"/>
</g>
<g id="レイヤー_6" class="st0">
	<g id="レイヤー_2_17_" class="st2">
		<g id="_02_4_">
			<polyline class="st3" points="19.5795269,2.9859178 10.3995142,14.9684668 19.6004868,27.014082 			"/>
		</g>
	</g>
</g>
<g id="レイヤー_6のコピー" class="st0">
	<g id="レイヤー_2_16_" class="st2">
		<g id="_02_3_">
			<polyline class="st3" points="10.4204721,27.014082 19.6004868,15.0315332 10.3995142,2.9859178 			"/>
		</g>
	</g>
</g>
<g id="レイヤー_8" class="st0">
	<g id="レイヤー_2_15_" class="st2">
		<g id="_02_2_">
			<polyline class="st3" points="3.0183101,9.7402363 15.0008593,18.9202499 27.0464745,9.7192774 			"/>
		</g>
	</g>
</g>
<g id="レイヤー_32" class="st0">
	<path class="st1" d="M14.9661121,21.4744282c-0.3080215,0.0002575-0.6054144-0.112608-0.8357067-0.3171654L2.4232051,10.7469196
		c-0.5200063-0.4616175-0.5673397-1.2573814-0.105722-1.7773876C2.7791011,8.4495249,3.5748646,8.4021921,4.094871,8.8638096
		L14.96737,18.5320854l10.9155436-9.6682758c0.5083027-0.4741287,1.304718-0.4464264,1.7788467,0.0618753
		c0.4741287,0.5083008,0.4464264,1.304718-0.0618744,1.7788458c-0.0155792,0.0145321-0.0315247,0.0286665-0.047823,0.0423889
		L15.8008118,21.1577663C15.5708294,21.362114,15.2737646,21.4748116,14.9661121,21.4744282z"/>
</g>
<g id="レイヤー_9">
	<g id="レイヤー_2_3_">
		<g id="マイメールのコピー">
			<path class="st4" d="M27.6375675,23.661499L16.6249924,4.6893411c-0.872283-1.5810134-2.398778-1.5810134-3.2710609,0
				L2.3958745,23.661499c-0.9268011,1.5810127-0.1635532,2.8349209,1.6355305,2.8349209h21.9706306
				C27.746603,26.4964199,28.5098495,25.2425117,27.6375675,23.661499z M14.0626612,9.3778629
				c0.4906588-0.4906588,1.308424-0.5451765,1.8536005,0l0,0c0.218071,0.2725887,0.3816242,0.5996952,0.3816242,0.9813185
				c0,0.3271055-0.1090355,1.4719782-0.3271065,3.3800964s-0.436142,3.7617216-0.5996952,5.5608053H14.553319
				c-0.1635532-1.7990837-0.3271065-3.7072029-0.5451775-5.6153221c-0.21807-1.9081202-0.3271065-3.0529919-0.3271065-3.3800983
				C13.6810379,9.9775581,13.8445902,9.6504517,14.0626612,9.3778629z M15.9707804,23.4979458
				c-0.5451775,0.5451775-1.4174604,0.5451775-1.9626379,0c-0.2725878-0.2725887-0.436141-0.5996933-0.436141-0.9813175
				c0-0.7632484,0.5996952-1.3629436,1.3629427-1.3629436s1.3629436,0.5996952,1.3629436,1.3629436
				C16.4069214,22.8982525,16.2433681,23.2798748,15.9707804,23.4979458z"/>
		</g>
	</g>
</g>
<g id="レイヤー_10" class="st0">
	<path class="st1" d="M27.5057678,2.6522136c-0.6634617-0.672056-1.7461128-0.6790224-2.418169-0.0155602
		c-0.0000591,0.000057-0.0001144,0.000114-0.0001736,0.0001707l0,0l-10.0871801,9.9591789L4.9128213,2.6378014
		c-0.6718545-0.6640296-1.7548025-0.6576864-2.4188321,0.014168S1.836303,4.4067717,2.5081573,5.0708013l10.0571327,9.9298649
		L2.5081573,24.9293098c-0.6719221,0.6640282-0.6783203,1.7470303-0.0142906,2.4189548
		c0.6640296,0.6719227,1.7470324,0.6783199,2.4189546,0.0142899L15,17.4033756l10.0871792,9.9591789
		c0.6719208,0.6640301,1.7549229,0.6576328,2.4189548-0.0142899c0.6640301-0.6719246,0.6576309-1.7549267-0.0142918-2.4189548l0,0
		l-10.0573769-9.9296207l10.0573788-9.9298649C28.1630726,4.4059711,28.1693058,3.3237543,27.5057678,2.6522136z"/>
</g>
<g id="レイヤー_11" class="st0">
	<g id="レイヤー_2_4_" class="st2">
		<g id="マイメール">
			<path class="st4" d="M10.6505575,23.2639427H9.4907064V12.9219332h1.1598511V23.2639427z M19.6394043,12.8252811h-1.1598511
				v10.4386616h1.1598511V12.8252811z M15.0966549,12.8252811h-1.0631981v10.4386616h1.159852L15.0966549,12.8252811z
				 M27.5650558,8.5724916h-3.3828983V25.48699c0,1.353159-1.159853,2.51301-2.5130119,2.51301l0,0H7.4609656
				c-1.3531594,0-2.5130105-1.159853-2.5130105-2.5130119l0,0V8.5724916H2.4349434V7.4126406h8.8921947V5.2862458
				c0-1.7397773,1.3531599-3.1895916,3.0929375-3.2862458h0.0966549c1.8364305,0,3.2862444,1.4498143,3.2862444,3.2862458v2.0297403
				h9.6654282v1.2565055H27.5650558z M12.3903341,7.4126406h4.2527876V5.2862458
				c0-1.1598516-0.9665432-2.1263943-2.1263952-2.1263943h-0.1933088c-1.159852,0-2.0297403,0.9665427-1.9330854,2.1263943
				L12.3903341,7.4126406z M22.9256516,8.5724916H6.1078062V25.48699c0,0.7732334,0.579926,1.353159,1.3531594,1.353159h14.1115246
				c0.7732334,0,1.353159-0.5799255,1.353159-1.353159L22.9256516,8.5724916z"/>
		</g>
	</g>
</g>
<g id="レイヤー_12" class="st0">
	<g id="レイヤー_2_5_" class="st2">
		<g id="マイメール_1_">
			<path class="st4" d="M2.9375,18.84375V8.484375l9.6796885,6.7890625c0.1617155,0.1136541,0.377346,0.1136541,0.5390615,0
				l9.5703144-6.796875v2.7265625h0.9375v-2.96875c0-1.121829-0.90942-2.0312505-2.03125-2.0312505c0,0-0.0000019,0-0.0000019,0
				H4.03125C2.9094217,6.2031245,2,7.112546,2,8.234375c0,0,0,0,0,0V18.84375
				C1.9999998,19.9655781,2.9094212,20.875,4.0312495,20.875c0,0,0.0000005,0,0.0000005,0h12.6796875v-0.9375H4.03125
				C3.4271889,19.9375,2.9375002,19.4478111,2.9375,18.84375z M4.03125,7.125h17.6015625
				c0.316124,0.0021195,0.6156292,0.1418891,0.8203125,0.3828125L12.8828135,14.3125L3.203125,7.523437
				C3.4095786,7.2804427,3.7123938,7.1404624,4.03125,7.1406245V7.125z M28,18.84375l-4.8125,4.953125L18.40625,18.875
				l0.6718769-0.65625L22.7500019,22v-8.6484385h0.9375V22l3.6718769-3.78125L28,18.84375z"/>
		</g>
	</g>
</g>
<g id="レイヤー_14" class="st0">
	<g id="レイヤー_2_7_" class="st2">
		<g id="管理ページ_1_">
			<path class="st4" d="M27.8575916,5.70749c-0.4881573-1.7899096-1.7899113-3.0916617-3.5798187-3.579819
				c-0.9763145-0.3254381-2.1153488,0-2.7662239,0.650876L4.9142056,19.3758907L1.9852629,28l8.6241102-2.9289436
				L27.2067165,8.4737139C28.0203114,7.8228378,28.1830311,6.6838045,27.8575916,5.70749z M23.9523354,3.4294233
				c1.3017521,0.4881573,2.2780647,1.4644713,2.7662239,2.7662239c0.1627197,0.325438,0.1627197,0.6508765,0,0.9763141
				l-3.7425385-3.5798192C23.3014584,3.2667043,23.6268959,3.2667043,23.9523354,3.4294233z M6.5413961,19.7013283
				L21.9997063,4.2430182l3.7425385,3.7425385L10.4466543,23.4438667L6.5413961,19.7013283z M5.8905201,20.8403625
				l3.2543812,3.2543812l-5.0442905,1.6271896L5.8905201,20.8403625z"/>
		</g>
	</g>
</g>
<g id="レイヤー_15" class="st0">
	<g id="レイヤー_2_8_" class="st2">
		<g id="管理ページ_2_">
			<path class="st4" d="M15,18.7999935c-2.1000004,0-3.8000002-1.7000008-3.8000002-3.8000002S12.8999996,11.1999931,15,11.1999931
				s3.7999992,1.6999998,3.7999992,3.8000002S17.1000004,18.7999935,15,18.7999935z M15,12.0999928
				c-1.6000004,0-2.8000002,1.3000002-2.8000002,2.9000006S13.5,17.7999935,15,17.7999935s2.7999992-1.3000011,2.7999992-2.8000002
				S16.6000004,12.0999928,15,12.0999928z M14,23.4999924L14,23.4999924c-0.3999996,0-0.6999998-0.2999992-0.8000002-0.7000008
				L13,21.2999935c-0.3000002-0.1000004-0.6000004-0.2000008-0.8999996-0.3999996l-1.2000008,0.8999996
				c-0.3000002,0.1999989-0.8000002,0.1999989-1.1000004-0.1000004l-1.5-1.3999996C8,19.9999924,8,19.5999928,8.1999998,19.1999931
				l0.9000006-1.2000008c-0.2000008-0.2999992-0.3000002-0.6999989-0.4000006-1l-1.5-0.1999989
				C6.7999997,16.7999935,6.5,16.3999939,6.5,15.9999933v-2c0-0.4000006,0.2999997-0.6999998,0.6999998-0.8000002l1.5-0.1999998
				c0.1000004-0.3000002,0.3000002-0.6999998,0.4000006-1l-0.9000006-1.1999998
				c-0.2999997-0.3000002-0.2999997-0.8000002,0-1.1000004l1.4000006-1.5c0.2999992-0.1999998,0.7999992-0.2999997,1.0999994,0
				L12,9.0999928c0.3000002-0.0999994,0.6000004-0.2999992,1-0.3999996l0.1999998-1.5
				c0-0.3999996,0.4000006-0.6999998,0.8000002-0.6999998h2c0.3999996,0,0.7000008,0.3000002,0.7999992,0.6999998L17,8.6999931
				c0.2999992,0.1000004,0.6000004,0.1999998,0.8999996,0.4000006l1.3000011-0.9000006
				C19.5,7.9999933,20,7.9999933,20.2999992,8.2999935l1.4000015,1.3999996C22,9.8999929,22,10.3999929,21.7999992,10.6999931
				l-1,1.3000002c0.2000008,0.3000002,0.3000011,0.6999998,0.4000015,1l1.5,0.1999998
				c0.3999996,0.0999994,0.7000008,0.3999996,0.7000008,0.8000002v2c0,0.3999987-0.2999992,0.6999998-0.7000008,0.8000002
				l-1.5,0.1999989C21.0999985,17.2999935,21,17.5999928,20.7999992,17.899992l0.9000015,1.2000008
				c0.1999989,0.2999992,0.1999989,0.7999992-0.1000023,1.1000004l-1.3999977,1.3999996
				C19.8999996,21.899992,19.5,21.899992,19.0999985,21.6999931L18,20.7999935
				c-0.2999992,0.1999989-0.7000008,0.2999992-1,0.3999996l-0.2000008,1.5
				C16.7000008,23.0999928,16.4000015,23.3999939,16,23.3999939L14,23.4999924z M11.8999996,19.6999931l0.2000008,0.1999989
				C12.5,20.0999928,13,20.2999916,13.3999996,20.4999924l0.3000002,0.1000004l0.3000002,2h1.8000002l0.3000002-2
				l0.3000011-0.1000004c0.5-0.1000004,0.8999977-0.2999992,1.2999992-0.6000004L18,19.6999931l1.6000023,1.1999989
				l1.2999992-1.1999989l-1.2999992-1.7000008l0.1999989-0.2999992C20,17.2999935,20.2000008,16.7999935,20.4000015,16.399992
				l0.1000004-0.2999992l2-0.3000002v-1.6999989l-2-0.3000002l-0.1000004-0.3000002
				c-0.1000004-0.5-0.2999992-0.9000006-0.6000004-1.3000002l-0.1999989-0.3000002L21,10.2999935l-1.2999992-1.3000002
				L18,10.2999935l-0.2000008-0.1999998C17.4000015,9.8999939,16.9000015,9.6999931,16.5,9.4999933l-0.2999992-0.0999994
				l-0.3000011-2H14l-0.1999998,2L13.5,9.4999933c-0.5,0.1999998-0.8999996,0.3999996-1.3000002,0.5999994l-0.3000002,0.2000008
				l-1.5999994-1.3000002L9,10.2999935l1.3000002,1.5999994l-0.1999998,0.3000002
				c-0.3000002,0.3999996-0.5,0.8000002-0.6000004,1.3000002l-0.1000004,0.3000002l-1.9999995,0.3000002v1.8000002
				l1.9999995,0.1999989L9.5,16.3999939c0.1000004,0.5,0.3000002,0.8999996,0.6000004,1.2999992l0.1999989,0.3000011L9,19.6999931
				l1.3000002,1.2999992L11.8999996,19.6999931z M22.7000008,14.0999937L22.7000008,14.0999937z M22.6000004,13.9999933
				L22.6000004,13.9999933z"/>
		</g>
	</g>
</g>
<g id="レイヤー_13" class="st0">
	<g id="レイヤー_2_6_" class="st2">
		<g id="管理ページ">
			<polygon class="st4" points="14.8414621,2.3170669 2.0000005,2.3170669 2.0000005,26.0975533 14.6829271,26.0975533 
				14.6829271,24.512188 3.585366,24.512188 3.585366,3.9024329 13.8902445,3.9024329 13.8902445,8.6585302 19.1219521,8.6585302 
				19.439024,8.9756031 19.439024,10.8780422 21.0243893,10.8780422 21.0243893,8.3414574 			"/>
			<polygon class="st4" points="26.2560978,18.6463356 21.5,23.4024315 21.5,12.6219444 19.1219521,12.6219444 
				19.1219521,23.0853596 14.5243893,18.6463356 12.7804871,20.2317009 20.3902435,27.6829205 28,20.2317009 			"/>
		</g>
	</g>
</g>
<g id="レイヤー_16" class="st0">
	<g id="レイヤー_2_9_" class="st2">
		<g id="管理ページ_3_">
			<polygon class="st4" points="14.778904,2 2.1843414,2 2.1843414,25.3232651 9.2979374,25.3232651 9.8323507,23.7683811 
				3.7392256,23.7683811 3.7392256,3.5548844 13.8459749,3.5548844 13.8459749,8.2195377 18.9770927,8.2195377 
				19.2880707,8.5305138 19.2880707,11.8133411 20.8429546,10.3963757 20.8429546,7.9085608 			"/>
		</g>
	</g>
	<path class="st1" d="M27.6832008,12.3903599c-0.3842125-1.3961306-1.3955078-2.4150467-2.7362862-2.7847977
		c-0.8579845-0.2870312-1.8980465-0.0418262-2.5343056,0.6036053L11.9050112,20.8647919L9.5149994,28l7.0577755-2.4295063
		L27.018177,14.9717779C27.7394867,14.387764,27.9989986,13.377244,27.6832008,12.3903599z M24.4899349,11.0912533
		c0.8579865,0.237587,1.4608154,0.8495893,1.6976242,1.7242117l0.0121269,0.0402718
		c0.0810089,0.2472267,0.080389,0.5518284-0.0850525,0.7984333l-2.4319954-2.472888
		C23.8962803,11.0570459,24.2011929,10.9946957,24.4899349,11.0912533z M12.9209738,22.728941l1.8031998,1.8336754
		l-2.7325544,0.9410152L12.9209738,22.728941z M16.1451817,23.7903061l-2.46698-2.5086517l8.8909855-9.0153751l2.4663563,2.5078735
		L16.1451817,23.7903061z"/>
</g>
<g id="レイヤー_17" class="st0">
	<g id="レイヤー_2_12_" class="st2">
		<g id="管理ページ_6_">
			<polygon class="st4" points="16.6743488,2 3.9338789,2 3.9338789,25.5934658 10.2918453,25.5934658 10.2918453,24.0205669 
				5.5067763,24.0205669 5.5067763,3.5728977 15.7306118,3.5728977 15.7306118,8.2915907 20.921175,8.2915907 21.235754,8.6061697 
				21.235754,12.5332241 22.808651,11.6811857 22.808651,7.9770117 			"/>
		</g>
	</g>
	<g id="レイヤー_2_11_" class="st2">
		<g id="管理ページ_5_">
			<path class="st4" d="M18.0841389,17.8515053c1.11833,0,1.8697033,1.0274181,1.8697033,1.9870415
				c0,0.9785004-0.8912048,1.8697033-1.8697033,1.8697033c-1.0308781,0-1.8697033-0.8386688-1.8697033-1.8697033
				C16.2144356,18.7057476,17.0181847,17.8515053,18.0841389,17.8515053 M18.0841389,16.4358978
				c-1.8772526,0-3.2853127,1.5252399-3.2853127,3.4026489c0,1.8772545,1.525238,3.2853127,3.2853127,3.2853127
				c1.7600727,0,3.2853107-1.5252399,3.2853107-3.2853127S19.9613934,16.4358978,18.0841389,16.4358978L18.0841389,16.4358978z"/>
		</g>
	</g>
	<g id="レイヤー_2_10_" class="st2">
		<g id="管理ページ_4_">
			<path class="st4" d="M17.2286396,28h-0.0176163c-0.6551113,0-1.2095585-0.4638481-1.380847-1.1519909l-0.1305504-0.9692192
				c-0.0229645-0.0106964-0.0468731-0.0199757-0.0706234-0.0306721l-0.6774473,0.5144958
				c-0.5943985,0.4070663-1.4108887,0.330307-1.8854322-0.1550884l-1.2819118-1.2105026
				c-0.4747009-0.4792614-0.5568066-1.1428661-0.2349911-1.7940483l0.5906229-0.809412
				c-0.0223351-0.0567818-0.0423107-0.1121464-0.0607138-0.1659412l-0.8570719-0.1151371c-0.0031452,0-0.006134,0-0.0092802,0
				c-0.6143742,0-1.2111311-0.6436291-1.2111311-1.4055405v-1.7556686c0-0.6574707,0.4584999-1.2150631,1.1412945-1.3885536
				l0.9654446-0.1336975c0.0099096-0.0229626,0.0199757-0.0460854,0.0298853-0.0706215
				c0.0084934-0.018404,0.016201-0.0368061,0.0237503-0.0553665l-0.546896-0.7387905
				c-0.469038-0.4646339-0.469038-1.3440409,0.0654325-1.8848019l1.320919-1.4061708
				c0.5269213-0.3540592,1.3325586-0.4377375,1.8524017,0.0898132l0.7011986,0.4816208
				c0.0470285-0.0215492,0.0945301-0.0437269,0.1437626-0.0652752l0.1167088-0.8893166
				c-0.0061331-0.6244402,0.6359215-1.23032,1.3954754-1.23032h1.7327042c0.6574707,0,1.2119179,0.4638472,1.3824196,1.1543493
				l0.1289768,0.9668608c0.0306702,0.012269,0.059927,0.0245371,0.0890255,0.0383787l0.7664719-0.5384035
				c0.589838-0.3969994,1.3824196-0.3178825,1.8646717,0.1689291l1.2134895,1.23032
				c0.5144939,0.3303089,0.5391884,1.2081423,0.1736488,1.7641621l-0.6297894,0.8309631
				c0.0199757,0.053793,0.0399513,0.1060123,0.0567818,0.1566601l0.8570728,0.1151352
				c0.7603397,0.1873322,1.2196255,0.7464981,1.2196255,1.4039688v1.7556686c0,0.658886-0.4592857,1.2180519-1.1412964,1.3901272
				l-0.9508152,0.1305504c-0.01227,0.0276833-0.0229645,0.0567837-0.0353909,0.084465l0.5144939,0.6958504
				c0.3993587,0.6052513,0.3255901,1.4008236-0.1489525,1.8832302l-1.2150631,1.2303219
				c-0.4622765,0.4654217-1.1258812,0.5514565-1.7772179,0.2211494l-0.132122-0.0860386l-0.5991173-0.4960899
				c-0.0429401,0.0154152-0.084465,0.0306721-0.1259899,0.0460873l-0.1151371,0.8754749
				c-0.1843433,0.7664757-0.7387886,1.23032-1.3962612,1.23032L17.2286396,28z M15.539032,24.1399517l0.4193344,0.2826481
				c0.1782093,0.119854,0.3732491,0.1859169,0.5997448,0.2642479l0.4147739,0.1412468l0.2456875,1.754097l1.6896076-0.084465
				l0.2595272-1.7556667l0.5898361-0.1966133c0.1873322-0.059927,0.3993587-0.125988,0.5237751-0.210453l0.4393101-0.2964916
				l1.24259,1.0291462l1.3317719-1.1703911l-1.0536842-1.4991302l0.2733707-0.4132004
				c0.1167088-0.1782093,0.1827717-0.3763943,0.2595272-0.6052513l0.1398296-0.4193325l1.741827-0.2519798l-0.0061321-1.7572403
				l-1.7311325-0.2349911l-0.1950378-0.5975437c-0.0599289-0.1904774-0.1259899-0.4054928-0.210453-0.5344696l-0.2749424-0.4177628
				l1.1442814-1.5076218l-1.2150631-1.2142782l-1.5683365,1.064537l-0.402504-0.2719545
				c-0.1827717-0.122056-0.3809566-0.1896906-0.6113853-0.2672348l-0.4177608-0.1406174l-0.2320023-1.7548819l-1.7249966,0.0015736
				l-0.2280712,1.7918453l-0.4647923,0.1174917c-0.1574478,0.0399523-0.2903576,0.1074295-0.4147739,0.1665697
				c-0.1374712,0.0652752-0.2688084,0.1252031-0.398571,0.1690865l-0.3394318,0.1143503l-1.4207983-0.9953299l-1.2396011,1.2164783
				l1.0459766,1.4116755l-0.1137199,0.348711c-0.0490742,0.1489525-0.1212702,0.3210278-0.194253,0.4946766
				c-0.0575686,0.1336956-0.1151361,0.2688084-0.1528854,0.3839436l-0.1390438,0.420908l-1.739625,0.2349892l0.0069208,1.7556705
				l1.7319174,0.2365627l0.194253,0.5943985c0.0591402,0.1920509,0.1267748,0.4086399,0.2112389,0.5376167l0.2719545,0.4132004
				l-1.0752325,1.4484825c-0.0015726-0.0045624,0.0176163,0.0506458,0.0184031,0.0506458l1.2864733,1.2089291L15.539032,24.1399517z
				 M23.4165764,15.6917591c0.0154133,0.0237503,0.0399513,0.049861,0.0721951,0.072197L23.4165764,15.6917591z
				 M23.4074535,15.6272717c0,0.0007858-0.0015736,0.0015736-0.0015736,0.0023594L23.4074535,15.6272717z"/>
		</g>
	</g>
</g>
<g id="レイヤー_19" class="st0">
	<g id="レイヤー_2_13_" class="st2">
		<g id="管理ページ_7_">
			<polygon class="st4" points="15.1625004,2.3249936 2,2.3249936 2,26.699995 14.8374996,26.699995 14.8374996,25.0749931 
				3.625,25.0749931 3.625,3.9499936 14.1875,3.9499936 14.1875,8.8249931 19.5500011,8.8249931 19.875,9.1499939 
				19.875,11.0999937 21.5,11.0999937 21.5,8.4999933 			"/>
			<polygon class="st4" points="28,19.0624943 21.8249989,19.0624943 21.8249989,13.0499935 19.5500011,13.0499935 
				19.5500011,19.0624943 13.375,19.0624943 13.375,21.4999943 19.5500011,21.4999943 19.5500011,27.6749916 21.8249989,27.6749916 
				21.8249989,21.4999943 28,21.4999943 			"/>
		</g>
	</g>
</g>
<g id="レイヤー_18" class="st0">
	<path class="st1" d="M14.9991751,2.0024679C10.2005234,2.0290425,5.7475138,4.5035901,3.1907244,8.5644512V3.7703557l0,0
		C3.1906641,3.4415462,2.924062,3.1750426,2.5952525,3.1751032C2.2665288,3.1751637,2.0000606,3.4416318,2,3.7703557l0,0v6.4995875
		l0,0c-0.0001026,0.3272715,0.2651198,0.59266,0.5923908,0.5927629c0.000124,0,0.0002477,0,0.0003717,0l0,0v0.0103989h6.4839883
		c0.3273745,0,0.5927629-0.2653885,0.5927629-0.592762S9.4041252,9.6875801,9.0767508,9.6875801H3.8978796
		c2.2663307-4.0013199,6.5027637-6.4816666,11.1012955-6.4995875c6.5259333-0.0053902,11.8206167,5.2805533,11.8260069,11.8064861
		s-5.2805538,11.8206177-11.8064871,11.8260059c-2.6574659,0.0021954-5.2380896-0.8914814-7.3250561-2.5366879l-0.0103993,0.0155983
		c-0.2467089-0.2098503-0.6168232-0.1799698-0.826674,0.06674c-0.0913057,0.1073418-0.1409049,0.2439709-0.1397219,0.3848896
		c0.0009723,0.2412605,0.1464429,0.4584427,0.3691769,0.5511646c5.6909885,4.3730202,13.8494806,3.3045959,18.2224998-2.3863945
		S28.6131153,9.0663157,22.9221249,4.693296C20.6500282,2.9473898,17.8645916,2.0013878,14.9991751,2.0024679z
		 M15.5711393,9.5048485L15.5711393,9.5048485v-0.009656c0-0.3273735-0.2653894-0.592762-0.5927629-0.592762
		s-0.592762,0.2653885-0.592762,0.592762v0.009656l0,0v6.6815758l-3.5721731,1.4559078
		c-0.3216295,0-0.5823631,0.2607346-0.5823631,0.5823631c0,0.3216305,0.2607336,0.5823631,0.5823631,0.5823631l4.1701355-1.4559078
		l0,0c0.320364,0.0025501,0.5838737-0.2517109,0.592762-0.5719643l0,0L15.5711393,9.5048485z"/>
</g>
<g id="レイヤー_20" class="st0">
	<path class="st1" d="M27.2147446,28h-2.0227928v-2.7744656c-0.0171528-2.5197926-2.0709095-4.5501118-4.5907326-4.5383415
		H9.3997927c-2.5201731-0.0122185-4.5744815,2.018198-4.5917435,4.5383415V28H2.7852547v-2.7744656
		c0.0182791-3.6368809,2.9776285-6.5723381,6.6145382-6.5611362h11.2014265
		c3.6365147-0.010643,6.5952473,2.9246502,6.6135254,6.5611362V28z"/>
	<path class="st1" d="M15.0001011,15.1372519c-3.6358051,0.0096378-6.5934286-2.9253626-6.6117058-6.5611353
		c0.020215-3.6520472,2.9971724-6.5962286,6.6492186-6.5760131c3.6234922,0.0200574,6.5559568,2.9525218,6.5760126,6.5760131
		C21.5953484,12.2126007,18.6366158,15.1478949,15.0001011,15.1372519z M15.0001011,4.0375724
		c-2.5065212,0.0281525-4.5156374,2.0829124-4.4874849,4.5894341s2.0829124,4.5156384,4.5894346,4.4874849
		c2.4866066-0.0279284,4.4877243-2.0516119,4.487772-4.5383749C19.5727825,6.0566401,17.5196114,4.026361,15.0001011,4.0375724z"/>
</g>
<g id="レイヤー_21" class="st0">
	<path class="st1" d="M21.3823071,25.2262459h-1.7333336v-2.1763744c-0.0190582-1.940876-1.6053066-3.5002213-3.5462265-3.4860783
		H7.2786932c-1.9407368-0.0140438-3.5266793,1.5453815-3.5453598,3.4860783v2.1763744H2v-2.1763744
		c0.0196588-2.8975849,2.3810692-5.2324772,5.2786932-5.2194138h8.8240538
		c2.8979225-0.0134487,5.2598057,2.3215256,5.2795601,5.2194138V25.2262459z"/>
	<path class="st1" d="M11.6907196,15.2119122c-2.8975744,0.0127773-5.2588439-2.322052-5.2786932-5.2195873
		c0.0334005-2.9153419,2.4238281-5.251617,5.3391695-5.2182169c2.8682203,0.0328608,5.1853561,2.349997,5.2182178,5.2182169
		C16.949564,12.8898602,14.588294,15.2246895,11.6907196,15.2119122z M11.6907196,6.5062451
		C9.7499828,6.4922028,8.1640406,8.0516272,8.14536,9.9923248c0.0335407,1.9580488,1.6480417,3.5181704,3.6060905,3.4846296
		c1.9107857-0.0327311,3.4518986-1.573843,3.4846296-3.4846296C15.2173986,8.0516272,13.6314564,6.4922023,11.6907196,6.5062451z"/>
	<path class="st1" d="M28,25.2262459h-1.7333336v-2.1763744c-0.0110531-1.5983429-1.1043682-2.9857864-2.6558132-3.3702927
		l0.4265747-1.6790791C26.3574944,18.5789623,27.9892807,20.6579342,28,23.0490036V25.2262459z"/>
	<path class="st1" d="M19.6245346,15.0543518l-0.4248409-1.6813326c1.2465267-0.3081093,2.2256031-1.2718325,2.5533733-2.5133333
		c0.2325172-0.8861752,0.0989075-1.8286257-0.37076-2.6152534c-0.4802303-0.8120565-1.2667217-1.3969922-2.1826134-1.6232672
		l0.4248409-1.6813331c1.3640785,0.3384967,2.5348682,1.2110457,3.2491322,2.4214664
		c0.7062531,1.1836338,0.9069462,2.6015253,0.5569191,3.9346666C22.943491,13.1498346,21.4843941,14.5906572,19.6245346,15.0543518z
		"/>
</g>
<g id="レイヤー_22" class="st0">
	<g class="st2">
		<path class="st4" d="M15.0357933,12.4105091c1.2793179-0.0097866,2.3112526-1.0495672,2.3114281-2.3288851
			C17.340786,8.7908459,16.2907791,7.7487726,15,7.7520347c-1.2863703,0.0098739-2.3212147,1.0607638-2.3113403,2.3471341
			C12.698534,11.3856268,13.749424,12.4204712,15.0357933,12.4105091z"/>
		<path class="st4" d="M15,2C7.820272,2,2,7.820272,2,15s5.820272,13,13,13s13-5.8202724,13-13S22.1797276,2,15,2z
			 M15.0357933,6.30759c2.0773582,0.0097861,3.7560501,1.6966758,3.7558727,3.774034
			C18.7840843,12.169651,17.088026,13.8575096,15,13.8549538c-2.0841475-0.0098743-3.7656593-1.7074318-3.755785-3.7915792
			S12.9516468,6.2976279,15.0357933,6.30759z M21.8609352,20.7619095c0,0.398756-0.3232021,0.7221336-0.7220459,0.7222214
			c-0.3988457,0-0.7222233-0.3233776-0.7222233-0.7222214v-1.5254669c-0.0064354-1.2908649-1.0564442-2.3329391-2.3472214-2.3296776
			h-6.1388893c-1.2907782-0.0032616-2.340786,1.0388126-2.3472223,2.3296776v1.5254669
			c0,0.3988438-0.3233776,0.7222214-0.7222223,0.7222214c-0.3988438,0-0.7222214-0.3233776-0.7222214-0.7222214v-1.5254669
			c0.0071411-2.0882893,1.7032871-3.7765903,3.7914896-3.77421h6.1388884
			c2.0882912-0.0025568,3.7845268,1.6857433,3.7916679,3.7740345V20.7619095z"/>
	</g>
</g>
<g id="レイヤー_23" class="st0">
	<path class="st5" d="M26.9110813,21.8099041v1.7431412c0.0170307,1.7014103-1.4052906,3.0939369-3.1768436,3.1102924
		c-0.0000973,0-0.0001945,0.0000019-0.0002918,0.0000019H6.2651062c-1.7713737-0.0165501-3.1934085-1.4090557-3.1762531-3.1102943
		V6.4469428C3.0716975,4.7457018,4.493732,3.3531966,6.2651062,3.3366463h1.7803354 M14.7582979,3.3366463h12.1530027v11.898735
		 M11.7350616,18.1970215L26.9110813,3.3366463"/>
</g>
<g id="レイヤー_24" class="st0">
	<path class="st1" d="M14.9994802,2.1555595C7.8663583,2.1209712,2.0511782,7.8666482,2,14.99967
		c0.0861726,7.1797028,5.9763279,12.9301434,13.1560287,12.8439693C22.2141724,27.7589264,27.9152851,22.0578117,28,14.99967
		C27.9483089,7.8664575,22.1327972,2.1209121,14.9994802,2.1555595z M14.9994802,26.3879433
		C8.6700029,26.4235229,3.506073,21.3290501,3.4559417,14.99967C3.5456886,8.6243505,8.7866611,3.5288858,15.1619816,3.6186326
		C21.4107552,3.7065978,26.4550533,8.7508955,26.5430183,14.99967
		C26.4927731,21.3290024,21.3289108,26.4234066,14.9994802,26.3879433z"/>
	<path class="st1" d="M20.3240681,9.7429924c-0.2824554-0.2861137-0.743372-0.2890797-1.0294857-0.0066252
		c-0.0000229,0.0000248-0.0000496,0.0000486-0.0000725,0.0000734l-4.294405,4.2399101L10.705596,9.7368565
		c-0.286027-0.2826967-0.7470703-0.2799959-1.0297661,0.006032c-0.2826967,0.2860279-0.2799959,0.7470703,0.006032,1.029767
		l4.2816124,4.2274303l-4.2816133,4.2269115c-0.2860565,0.2826977-0.2887802,0.743763-0.0060835,1.0298195
		s0.743762,0.2887802,1.0298185,0.0060825L15,16.0229893l4.294405,4.2399101
		c0.2860546,0.2826977,0.7471199,0.2799721,1.0298176-0.0060825c0.2826977-0.2860565,0.2799721-0.7471218-0.0060825-1.0298195l0,0
		l-4.2817173-4.2273264l4.2817173-4.2274313C20.6039009,10.4896183,20.6065559,10.0288868,20.3240681,9.7429924z"/>
</g>
<g id="レイヤー_25" class="st0">
	<path class="st1" d="M2.0376265,13.8654194C1.496317,21.0318069,6.8670039,27.2801285,14.033391,27.8214397
		c7.0463228,0.532238,13.2296457-4.6561775,13.9290819-11.6878719c0.5413074-7.1663866-4.8293781-13.41471-11.9957647-13.9560194
		C8.9203863,1.6453081,2.7370625,6.8337255,2.0376265,13.8654194z M22.89011,23.3213768L8.2072153,5.7823224
		c5.1845112-3.735297,12.4154463-2.5604768,16.1507416,2.6240344c1.5868607,2.202528,2.3487396,4.8929033,2.1523399,7.6004276
		C26.2612133,18.8120384,24.9694843,21.4219799,22.89011,23.3213768z M3.4898026,13.9928274
		c0.2476988-2.7910652,1.5278475-5.3892984,3.5900009-7.2863832l14.6799793,17.5360355
		c-5.1988811,3.7163582-12.4261103,2.514534-16.1424675-2.6843472c-1.570076-2.1964054-2.3226819-4.8726978-2.1275141-7.5655127
		L3.4898026,13.9928274z"/>
</g>
<g id="レイヤー_26" class="st0">
	<g id="レイヤー_2_14_" class="st2">
		<g id="マイメール_2_">
			<path class="st4" d="M27.8215389,3.0547032c-0.1784649-0.1784642-0.3569298-0.1784642-0.5353947-0.0892322L2.3011584,14.2979469
				C2.033462,14.3871794,1.94423,14.7441082,2.033462,15.0118036c0.089232,0.0892324,0.1784639,0.1784649,0.2676964,0.2676954
				l6.9601035,2.9446583l3.1231222,8.4770489l0,0c0.0892324,0.1784649,0.1784649,0.2676945,0.2676954,0.3569298
				c0.2676954,0.0892296,0.5353928,0,0.6246252-0.1784649l3.6585159-5.5323906l5.8893185,2.4092674
				c0.2676964,0.0892315,0.6246262,0,0.7138557-0.2676964v-0.0892315L28,3.7685597
				C28,3.4116316,27.9107685,3.2331676,27.8215389,3.0547032z M13.3659391,18.938015l-0.7138557,5.2646923l-2.320035-6.2462463
				l10.7078514-7.9416552L13.544404,18.759552C13.3659391,18.759552,13.3659391,18.8487835,13.3659391,18.938015z
				 M22.5568447,22.3288364l-5.7108536-2.3200359c-0.2676964-0.0892315-0.5353928,0-0.6246262,0.1784649l-2.5877304,3.9262123
				l0.7138557-4.8185329L24.8768768,7.0701485c0.1784649-0.2676964,0.1784649-0.5353928-0.0892334-0.7138567
				c-0.178463-0.1784644-0.4461594-0.1784644-0.6246243,0L9.5289583,17.1533737l-5.7108541-2.4092674L26.6615181,4.3931847
				L22.5568447,22.3288364z"/>
		</g>
	</g>
</g>
<g id="レイヤー_27" class="st0">
	<path class="st1" d="M18.9859295,20.9776058c-0.1267967,0.0000286-0.2507572-0.0375156-0.3562298-0.1078892l-3.8606138-2.5404015
		c-0.1828766-0.1199398-0.2929573-0.3239956-0.2927628-0.5426941v-5.1807299
		c-0.0001526-0.3588591,0.2906351-0.6498976,0.6494942-0.6500511c0.35886-0.0001535,0.6498976,0.2906351,0.6500511,0.6494951
		c0,0.000185,0,0.00037,0,0.000556v4.8300886l3.5678167,2.3483944c0.2998314,0.1977539,0.3825798,0.6011276,0.184824,0.900959
		c-0.1202965,0.1823902-0.3241405,0.2921848-0.5426292,0.2922726H18.9859295z"/>
	<path class="st1" d="M15.0000086,27.9989986C9.1901131,28.0782509,4.4118185,23.4408684,4.317174,17.6312046
		c0.074059-5.0513182,3.7448702-9.3292084,8.7263527-10.1695166V6.6761928h-1.356739
		c-0.6882772,0.0042443-1.2501259-0.5494061-1.2559986-1.2376709V3.237679
		c0.0058727-0.6882617,0.5677252-1.2419081,1.2559986-1.2376547h6.626298
		c0.6882744-0.0042534,1.2501259,0.5493929,1.2559986,1.2376547v2.2008424
		c-0.0058727,0.6882644-0.5677223,1.2419157-1.2559986,1.2376714h-1.356739v0.78543
		c4.9815559,0.8402591,8.652441,5.1181989,8.7264786,10.1695824C25.5881824,23.4408627,20.8098965,28.0782413,15.0000086,27.9989986
		z M13.6933136,5.3750553c0.3589401,0.0005555,0.6496572,0.2916279,0.6497736,0.6505685v1.9930425
		c-0.0002728,0.3270864-0.243578,0.6030111-0.5680599,0.6442156c-4.5852375,0.5174913-8.0758905,4.3547287-8.158308,8.9683399
		c0.0946589,5.0916557,4.2913833,9.1467285,9.3832893,9.0665722c5.0919065,0.0801468,9.2886248-3.9749317,9.3832731-9.0665894
		c-0.0824165-4.6136112-3.5730705-8.4508476-8.158308-8.968339c-0.3244753-0.0412035-0.5677786-0.3171186-0.568059-0.6441994
		V6.0256076c0.0001154-0.3589406,0.2908325-0.6500134,0.6497736-0.6505685h2.0064621l-0.043644-2.1373601l-6.582655,0.0634823
		l0.043644,2.1373601L13.6933136,5.3750553z"/>
</g>
<g id="レイヤー_28" class="st0">
	<path class="st1" d="M15.0004997,24.4795589c-8.15242,0-12.7002144-8.6551371-12.8902044-9.0235424
		c-0.1470604-0.2862263-0.1470604-0.6258068,0-0.9120331c0.1899903-0.3684053,4.7377839-9.0235424,12.8902044-9.0235424
		s12.6992149,8.6551371,12.8892059,9.0235424c0.1470585,0.2862263,0.1470585,0.6258068,0,0.9120331
		C27.6997147,15.8244219,23.1527214,24.4795589,15.0004997,24.4795589z M4.1439099,14.9980049
		c1.0096231,1.6897564,4.9094138,7.485857,10.8565903,7.485857c5.9637394,0,9.8479652-5.7921104,10.854393-7.4818668
		c-1.0094223-1.6897554-4.9082146-7.4858575-10.854393-7.4858575c-5.9647379,0-9.8489628,5.79211-10.8555918,7.4818673H4.1439099z"
		/>
	<path class="st1" d="M15.0004997,19.2719879c-2.3586931-0.0001106-4.2707024-1.9122963-4.2705917-4.2709894
		s1.9122982-4.2707024,4.2709904-4.2705917C17.359045,10.7305174,19.2708302,12.6418524,19.2714901,15
		C19.2693996,17.358099,17.3585987,19.2693481,15.0004997,19.2719879z M15.0004997,12.7261038
		c-1.2565002,0-2.275095,1.0185938-2.275095,2.275094s1.0185947,2.275095,2.275095,2.275095
		c1.2564983,0,2.2750931-1.0185947,2.2750931-2.275095l0,0c-0.0008793-1.2563295-1.0187645-2.2747517-2.2750931-2.2762918
		V12.7261038z"/>
</g>
<g id="レイヤー_29" class="st0">
	<path class="st1" d="M27.8263206,5.5935397V24.405407c-0.0052013,0.4701099-0.3850307,0.8499393-0.8551407,0.8551388h-9.4054985
		v2.7394466L2.1736803,24.4460526V5.5539331l15.3920012-3.5539398v2.7386665h9.4059315
		C27.4410305,4.7450957,27.8199787,5.1241217,27.8263206,5.5935397z M12.8355875,19.3283005l2.2712727-9.7394276
		L13.156167,9.6959934l-1.1489401,6.4258995c-0.0352726,0.1785336-0.0652599,0.3538609-0.0866671,0.5280609
		c-0.0224037,0.1750946-0.0334921,0.3514519-0.0331926,0.5279732h-0.0138664
		c-0.0181999-0.1698666-0.0352736-0.3409462-0.0534735-0.5151463c-0.018033-0.1726131-0.0447884-0.3442001-0.0801659-0.5141087
		l-1.3092747-6.2793455l-1.8565731,0.106513l-1.3360534,6.0121527c-0.0452232,0.16887-0.0788136,0.340642-0.1005335,0.5141077
		c-0.0222902,0.1751347-0.0333486,0.3515148-0.0331068,0.5280609H7.063674
		c0.0000777-0.1717453-0.008832-0.3433781-0.0266933-0.5141945c-0.0181999-0.1742001-0.0395203-0.345192-0.0662999-0.5141068
		l-1.0025601-5.8785124l-1.6834135,0.1068592l1.8042264,8.7112131l1.8704405,0.1068611l1.2689729-5.824954
		c0.008667-0.0448933,0.0181131-0.0822468,0.0266933-0.1143131s0.0181999-0.0684671,0.0266933-0.1133604
		c0.0267715-0.1322355,0.0446358-0.266119,0.0534735-0.4007473c0.008667-0.1336393,0.0224466-0.2672796,0.0406466-0.4008331
		h0.0266933c-0.0004168,0.1743917,0.010643,0.3486214,0.0331068,0.5215607
		c0.0214071,0.1689129,0.0513067,0.3380003,0.0866671,0.5076933l1.2826662,5.9856329L12.8355875,19.3283005z M26.9709206,24.405407
		V5.5935397h-9.4052391v2.5653338h6.8406849v0.8550529h-6.8406849v1.7101936h6.8406849v0.8550529h-6.8406849v1.7101936h6.8406849
		v0.8550529h-6.8406849v1.7101068h6.8406849v0.8551407h-6.8406849v1.7101059h6.8406849v0.8551407h-6.8406849v1.7101917h6.8406849
		v0.8550549h-6.8406849v2.5653343L26.9709206,24.405407z"/>
</g>
<g id="レイヤー_30" class="st0">
	<path class="st1" d="M27.8263206,5.5935397V23.550354c-0.005249,0.4700756-0.3850632,0.8498535-0.8551407,0.8550549h-9.4054985
		v3.5945835L2.1736803,24.4460526V5.5539331l15.3920012-3.5539398v2.7386665h9.4059315
		C27.4410305,4.7450957,27.8199787,5.1241217,27.8263206,5.5935397z M11.2055607,20.4378071l2.4989462,0.1464672
		l-2.8859997-5.4640732l2.805747-5.3709936l-2.3514404,0.1336403l-1.4299994,3.1797991
		c-0.0713606,0.141902-0.1252003,0.291955-0.1603336,0.4468536c-0.0352736,0.1560001-0.0758333,0.3099203-0.1196861,0.4616728
		H9.5360136c-0.0269403-0.151907-0.0651789-0.3015909-0.1143999-0.4478064
		c-0.04914-0.1473331-0.0994072-0.2875605-0.1528807-0.421113l-1.2291927-3.0195541l-2.2851396,0.1208124l2.4316068,4.9562931
		l-2.6454134,4.9573326l2.2178864,0.1196861l1.4835601-3.2460976c0.008666-0.0266914,0.0234861-0.0737534,0.0459337-0.1410923
		c0.0224466-0.0673389,0.0448923-0.137886,0.0673389-0.2137184c0.0224466-0.0758343,0.041687-0.1464672,0.0598869-0.2138081
		c0.014287-0.0454941,0.0232439-0.0924931,0.0266933-0.1400528h0.0267801
		c0.0181131,0.0716743,0.0331068,0.1422195,0.0469732,0.2138062s0.028861,0.1421337,0.047061,0.2138081
		c0.0133877,0.0942478,0.0449715,0.1849976,0.0929928,0.2671928L11.2055607,20.4378071z M26.97118,23.550354V5.5935397h-9.4054985
		v1.7104535h2.5653324v1.7098465h-2.5653324v0.8554869h2.5653324v1.7101936h-2.5653324V12.43466h2.5653324v1.7101068h-2.5653324
		v0.8551397h2.5653324v1.7101936h-2.5653324v0.8550529h2.5653324v1.7101955h-2.5653324v0.8550529h2.5653324v1.7101936h-2.5653324
		v1.7101936L26.97118,23.550354z M25.2610741,7.3039932v1.7098465h-4.2754402V7.3039932H25.2610741z M25.2610741,9.8693266
		v1.7101936h-4.2754402V9.8693266H25.2610741z M25.2610741,12.43466v1.7101068h-4.2754402V12.43466H25.2610741z
		 M25.2610741,14.9999933v1.7101946h-4.2754402v-1.7107143L25.2610741,14.9999933z M25.2610741,17.5653267v1.7101936h-4.2754402
		v-1.7108021L25.2610741,17.5653267z M25.2610741,20.1306591v1.7101936h-4.2754402v-1.710886L25.2610741,20.1306591z"/>
</g>
<g id="レイヤー_31" class="st0">
	<circle class="st1" cx="15" cy="5.1591377" r="3.1591444"/>
	<circle class="st1" cx="15" cy="14.9999933" r="3.1591442"/>
	<circle class="st1" cx="15" cy="24.8408489" r="3.1591446"/>
</g>
</svg>
