<svg xmlns="http://www.w3.org/2000/svg" viewBox="0 0 14 14.0028"><defs><style>.a{fill:#444;}</style></defs><title>icon_history</title><path class="a" d="M7,0A7.5637,7.5637,0,0,0,.6412,3.5336V.952h0A.3206.3206,0,0,0,0,.952H0v3.5H0a.3191.3191,0,0,0,.3192.3192h0v.0056H3.8108a.3192.3192,0,1,0,0-.6384H1.022A6.9012,6.9012,0,0,1,7,.6384a6.363,6.363,0,1,1-3.934,11.36l-.0056.0084A.3158.3158,0,0,0,2.54,12.25a.3229.3229,0,0,0,.1988.2968A6.9979,6.9979,0,1,0,7,0Zm.308,4.04h0V4.0348a.3192.3192,0,0,0-.6384,0V4.04h0v3.598l-1.9236.784a.3136.3136,0,1,0,0,.6272l2.2456-.784h0a.3168.3168,0,0,0,.3192-.308h0Z"/></svg>