<?xml version="1.0" encoding="utf-8"?>
<!-- Generator: Adobe Illustrator 22.1.0, SVG Export Plug-In . SVG Version: 6.00 Build 0)  -->
<svg version="1.1" id="レイヤー_1" xmlns="http://www.w3.org/2000/svg" xmlns:xlink="http://www.w3.org/1999/xlink" x="0px"
	 y="0px" viewBox="0 0 25 20" style="enable-background:new 0 0 25 20;" xml:space="preserve">
<style type="text/css">
	.st0{fill:#333333;}
</style>
<path class="st0" d="M18.3,8.7h-1.162l0.004-2.8c-0.046-2.379-2.026-4.235-4.5031-4.316l0.002-0.02
	C12.593,1.563,12.548,1.574,12.5,1.574s-0.093-0.011-0.141-0.0099l0.002,0.02C9.883,1.666,7.903,3.522,7.857,5.9l0.004,2.9H6.8
	C6.4,8.7,6,9,6,9.4v7.8c0,0.4,0.3,0.7,0.7,0.7h11.6c0.4,0,0.7-0.3,0.7-0.7V9.4C19,9,18.7,8.7,18.3,8.7z M12.5,3.44
	c1.462-0.035,2.737,1.122,2.764,2.505l-0.006,2.846L15.1,8.8H9.742L9.736,5.945C9.763,4.562,11.038,3.406,12.5,3.44z M14.676,14.99
	c0.233,0.264,0.415,0.48,0.551,0.647l-1.476,0.975l-1.304-2.153c-0.394,0.694-0.844,1.435-1.353,2.22l-1.458-1.13
	c0.464-0.521,0.947-1.02,1.448-1.496c0.201-0.193,0.326-0.316,0.377-0.367c-0.161-0.025-0.621-0.131-1.379-0.318
	c-0.547-0.136-0.909-0.235-1.081-0.3l0.569-1.699c0.844,0.341,1.597,0.717,2.26,1.129c-0.156-1.049-0.233-1.905-0.233-2.568h1.719
	c0,0.47-0.087,1.332-0.261,2.587c0.129-0.051,0.407-0.1769,0.83-0.376c0.579-0.264,1.115-0.49,1.604-0.676L16,13.213
	c-0.715,0.161-1.542,0.319-2.482,0.473L14.676,14.99z"/>
</svg>
