<svg xmlns="http://www.w3.org/2000/svg" viewBox="0 0 18 18"><defs><style>.a{fill:#666;}.b{fill:#fff;}</style></defs><title>icon_mymail</title><circle class="a" cx="9" cy="9" r="9"/><path class="b" d="M13.25,13.489a.5.5,0,0,1-.5-.5V11.9329a1.6209,1.6209,0,0,0-1.625-1.6128h-4.25A1.6209,1.6209,0,0,0,5.25,11.9329V12.989a.5.5,0,0,1-1,0V11.9329A2.6219,2.6219,0,0,1,6.8749,9.32h4.25a2.6218,2.6218,0,0,1,2.625,2.6128V12.989A.5.5,0,0,1,13.25,13.489Z"/><path class="b" d="M9,8.2073a2.6126,2.6126,0,1,1,2.625-2.6123A2.6218,2.6218,0,0,1,9,8.2073ZM9,3.9822a1.6126,1.6126,0,1,0,1.625,1.6128A1.6209,1.6209,0,0,0,9,3.9822Z"/></svg>