<?xml version="1.0" encoding="utf-8"?>
<!-- Generator: Adobe Illustrator 22.1.0, SVG Export Plug-In . SVG Version: 6.00 Build 0)  -->
<svg version="1.1" id="レイヤー_1" xmlns="http://www.w3.org/2000/svg" xmlns:xlink="http://www.w3.org/1999/xlink" x="0px"
	 y="0px" viewBox="0 0 14 14.0028" style="enable-background:new 0 0 14 14.0028;" xml:space="preserve">
<style type="text/css">
	.st0{fill:#444444;}
</style>
<title>icon_history</title>
<path class="st0" d="M7.4822,3.2038L7.4822,3.2038V3.1986c0-0.1763-0.1429-0.3192-0.3192-0.3192
	c-0.1763,0-0.3192,0.1429-0.3192,0.3192v0.0052l0,0v3.598L4.8941,7.4646C4.6235,7.5704,4.5176,7.7704,4.6,7.9704
	c0.0901,0.2189,0.2941,0.2118,0.4824,0.1647L7.1658,7.429C7.4118,7.3587,7.485,7.0881,7.485,6.841L7.4822,3.2038z"/>
<path class="st0" d="M7.0002,0.0001C3.1593-0.0188,0.028,3.1125,0.0004,6.9998c0.0464,3.9128,3.218,7.0466,7.084,6.9997
	c3.8005-0.0462,6.8704-3.1531,6.916-6.9997C13.9726,3.1124,10.8412-0.0188,7.0002,0.0001z M7.0002,13.2062
	c-3.4082,0.0194-6.1888-2.757-6.2158-6.2063c0.0483-3.4744,2.8704-6.2513,6.3033-6.2024c3.3647,0.0479,6.0809,2.797,6.1283,6.2024
	C13.1889,10.4492,10.4083,13.2255,7.0002,13.2062z"/>
</svg>
