<?xml version="1.0" encoding="utf-8"?>
<!-- Generator: Adobe Illustrator 21.0.1, SVG Export Plug-In . SVG Version: 6.00 Build 0)  -->
<svg version="1.1" id="レイヤー_1" xmlns="http://www.w3.org/2000/svg" xmlns:xlink="http://www.w3.org/1999/xlink" x="0px"
	 y="0px" viewBox="0 0 18 18" style="enable-background:new 0 0 18 18;" xml:space="preserve">
<style type="text/css">
	.st0{fill:#033333;}
</style>
<title>icon_edit02</title>
<g id="レイヤー_2">
	<g id="管理ページ">
		<path class="st0" d="M9,12.8c-2.1,0-3.8-1.7-3.8-3.8S6.9,5.2,9,5.2s3.8,1.7,3.8,3.8S11.1,12.8,9,12.8z M9,6.1
			C7.4,6.1,6.2,7.4,6.2,9s1.3,2.8,2.8,2.8s2.8-1.3,2.8-2.8S10.6,6.1,9,6.1z M8,17.5L8,17.5c-0.4,0-0.7-0.3-0.8-0.7L7,15.3
			c-0.3-0.1-0.6-0.2-0.9-0.4l-1.2,0.9c-0.3,0.2-0.8,0.2-1.1-0.1l-1.5-1.4c-0.3-0.3-0.3-0.7-0.1-1.1L3.1,12c-0.2-0.3-0.3-0.7-0.4-1
			l-1.5-0.2c-0.4,0-0.7-0.4-0.7-0.8v-2c0-0.4,0.3-0.7,0.7-0.8L2.7,7c0.1-0.3,0.3-0.7,0.4-1L2.2,4.8C1.9,4.5,1.9,4,2.2,3.7l1.4-1.5
			C3.9,2,4.4,1.9,4.7,2.2L6,3.1C6.3,3,6.6,2.8,7,2.7l0.2-1.5C7.2,0.8,7.6,0.5,8,0.5h2c0.4,0,0.7,0.3,0.8,0.7L11,2.7
			c0.3,0.1,0.6,0.2,0.9,0.4l1.3-0.9c0.3-0.2,0.8-0.2,1.1,0.1l1.4,1.4C16,3.9,16,4.4,15.8,4.7L14.8,6c0.2,0.3,0.3,0.7,0.4,1l1.5,0.2
			c0.4,0.1,0.7,0.4,0.7,0.8v2c0,0.4-0.3,0.7-0.7,0.8L15.2,11c-0.1,0.3-0.2,0.6-0.4,0.9l0.9,1.2c0.2,0.3,0.2,0.8-0.1,1.1l-1.4,1.4
			c-0.3,0.3-0.7,0.3-1.1,0.1L12,14.8c-0.3,0.2-0.7,0.3-1,0.4l-0.2,1.5c-0.1,0.4-0.4,0.7-0.8,0.7L8,17.5z M5.9,13.7l0.2,0.2
			c0.4,0.2,0.9,0.4,1.3,0.6l0.3,0.1l0.3,2h1.8l0.3-2l0.3-0.1c0.5-0.1,0.9-0.3,1.3-0.6l0.3-0.2l1.6,1.2l1.3-1.2l-1.3-1.7l0.2-0.3
			c0.2-0.4,0.4-0.9,0.6-1.3l0.1-0.3l2-0.3V8.1l-2-0.3l-0.1-0.3c-0.1-0.5-0.3-0.9-0.6-1.3l-0.2-0.3L15,4.3L13.7,3l-1.7,1.3l-0.2-0.2
			c-0.4-0.2-0.9-0.4-1.3-0.6l-0.3-0.1l-0.3-2H8l-0.2,2L7.5,3.5C7,3.7,6.6,3.9,6.2,4.1L5.9,4.3L4.3,3L3,4.3l1.3,1.6L4.1,6.2
			C3.8,6.6,3.6,7,3.5,7.5L3.4,7.8l-2,0.3v1.8l2,0.2l0.1,0.3c0.1,0.5,0.3,0.9,0.6,1.3l0.2,0.3L3,13.7L4.3,15L5.9,13.7z M16.7,8.1
			L16.7,8.1z M16.6,8L16.6,8z"/>
	</g>
</g>
</svg>
