<?xml version="1.0" encoding="utf-8"?>
<!-- Generator: Adobe Illustrator 23.0.4, SVG Export Plug-In . SVG Version: 6.00 Build 0)  -->
<svg version="1.1" id="Layer_1" xmlns="http://www.w3.org/2000/svg" xmlns:xlink="http://www.w3.org/1999/xlink" x="0px" y="0px"
	 viewBox="0 0 100 100" style="enable-background:new 0 0 100 100;" xml:space="preserve">
<style type="text/css">
	.st0{fill:#231F20;}
</style>
<g>
	<path class="st0" d="M89.5,95.5H10.2c-3.1,0-5.7-2.6-5.7-5.7V10.5c0-3.1,2.6-5.7,5.7-5.7h79.3c3.1,0,5.7,2.6,5.7,5.7v79.3
		C95.2,92.9,92.6,95.5,89.5,95.5z M10.2,8.6c-1.1,0-1.9,0.9-1.9,1.9v79.3c0,1.1,0.9,1.9,1.9,1.9h79.3c1.1,0,1.9-0.9,1.9-1.9V10.5
		c0-1.1-0.9-1.9-1.9-1.9H10.2z"/>
	<g>
		<path class="st0" d="M25.3,38.9h32v3.7c0,2.1,1.7,3.8,3.8,3.8c2.1,0,3.8-1.7,3.8-3.8v-3.7h9.5c1,0,1.9-0.8,1.9-1.9
			s-0.8-1.9-1.9-1.9h-9.5v-3.8c0-2.1-1.7-3.8-3.8-3.8c-2.1,0-3.8,1.7-3.8,3.8v3.8h-32c-1,0-1.9,0.8-1.9,1.9S24.3,38.9,25.3,38.9z"/>
		<path class="st0" d="M74.4,61.5H42.3v-3.8c0-2.1-1.7-3.8-3.8-3.8s-3.8,1.7-3.8,3.8v3.8h-9.4c-1,0-1.9,0.8-1.9,1.9s0.8,1.9,1.9,1.9
			h9.4V69c0,2.1,1.7,3.8,3.8,3.8s3.8-1.7,3.8-3.8v-3.7h32.1c1,0,1.9-0.8,1.9-1.9S75.4,61.5,74.4,61.5z"/>
	</g>
</g>
</svg>
