<?xml version="1.0" encoding="utf-8"?>
<!-- Generator: Adobe Illustrator 22.1.0, SVG Export Plug-In . SVG Version: 6.00 Build 0)  -->
<svg version="1.1" id="レイヤー_1" xmlns="http://www.w3.org/2000/svg" xmlns:xlink="http://www.w3.org/1999/xlink" x="0px"
	 y="0px" viewBox="0 0 19 19" style="enable-background:new 0 0 19 19;" xml:space="preserve">
<style type="text/css">
	.st0{fill:#444444;}
</style>
<title>icon_approve_min2</title>
<path class="st0" d="M16.8,12.7c-0.3-1.1-1.4-1.9-2.6-1.8h-3c-0.3-0.4-0.5-0.9-0.5-1.5c0.1-0.8,0.4-1.6,0.9-2.2
	c0.5-0.8,0.9-1.7,1-2.7c0-1.6-1.4-3-3-3c0,0,0,0,0,0c-1.6,0-3,1.3-3,2.9c0,0,0,0,0,0c0.1,1,0.5,1.9,1,2.7c0.4,0.7,0.7,1.4,0.9,2.2
	c0,0.5-0.1,1.1-0.5,1.5h-3c-1.2-0.1-2.3,0.7-2.6,1.8c-0.1,0.4-0.1,0.8-0.1,1.3v0.5c0,0.6,0.4,1,1,1h12.9c0.6,0,1-0.4,1-1v-0.5
	C16.9,13.5,16.9,13.1,16.8,12.7z M9.5,2.5c1.1,0,2,0.8,2,1.9c0,0,0,0,0,0c-0.1,0.5-0.2,1-0.5,1.5H7.9C7.7,5.5,7.5,5,7.4,4.5
	C7.5,3.4,8.4,2.5,9.5,2.5C9.5,2.5,9.5,2.5,9.5,2.5z M8.5,6.9h2.1c-0.5,0.7-0.8,1.6-0.9,2.4c0,0.5,0.1,1,0.3,1.5H9
	c0.2-0.5,0.3-1,0.3-1.5C9.2,8.5,8.9,7.7,8.5,6.9z M3.1,14.4v-0.5c0-0.3,0-0.7,0.1-1c0.2-0.7,0.9-1.1,1.6-1.1h9.4
	c0.7-0.1,1.4,0.4,1.6,1.1c0.1,0.3,0.1,0.7,0.1,1l0,0.5H3.1z"/>
<rect x="3.2" y="16.5" class="st0" width="12.6" height="1"/>
</svg>
