<?xml version="1.0" encoding="utf-8"?>
<!-- Generator: Adobe Illustrator 21.0.0, SVG Export Plug-In . SVG Version: 6.00 Build 0)  -->
<svg version="1.1" id="Layer_1" xmlns="http://www.w3.org/2000/svg" xmlns:xlink="http://www.w3.org/1999/xlink" x="0px" y="0px"
	 viewBox="0 0 100 100" style="enable-background:new 0 0 100 100;" xml:space="preserve">
<style type="text/css">
	.st0{fill:none;stroke:#231F20;stroke-width:3.7739;stroke-miterlimit:10;}
	.st1{fill:#231F20;}
	.st2{fill:none;stroke:#231F20;stroke-width:3.7739;stroke-linecap:round;stroke-linejoin:round;stroke-miterlimit:10;}
</style>
<g>
	<path class="st0" d="M89.5,93.6H10.2c-2.1,0-3.8-1.7-3.8-3.8V10.5c0-2.1,1.7-3.8,3.8-3.8h79.3c2.1,0,3.8,1.7,3.8,3.8v79.3
		C93.3,91.9,91.6,93.6,89.5,93.6z"/>
	<path class="st1" d="M64.9,42.6c0,2.1-1.7,3.8-3.8,3.8h0c-2.1,0-3.8-1.7-3.8-3.8V31.3c0-2.1,1.7-3.8,3.8-3.8h0
		c2.1,0,3.8,1.7,3.8,3.8V42.6z"/>
	<path class="st1" d="M42.3,69c0,2.1-1.7,3.8-3.8,3.8h0c-2.1,0-3.8-1.7-3.8-3.8V57.7c0-2.1,1.7-3.8,3.8-3.8h0c2.1,0,3.8,1.7,3.8,3.8
		V69z"/>
	<line class="st2" x1="25.3" y1="37" x2="74.4" y2="37"/>
	<line class="st2" x1="25.3" y1="63.4" x2="74.4" y2="63.4"/>
</g>
</svg>
