<?xml version="1.0" encoding="utf-8"?>
<!-- Generator: Adobe Illustrator 21.0.1, SVG Export Plug-In . SVG Version: 6.00 Build 0)  -->
<svg version="1.1" id="レイヤー_1" xmlns="http://www.w3.org/2000/svg" xmlns:xlink="http://www.w3.org/1999/xlink" x="0px"
	 y="0px" viewBox="0 0 25 20" style="enable-background:new 0 0 25 20;" xml:space="preserve">
<style type="text/css">
	.st0{fill:#414042;}
</style>
<title>icon_passless</title>
<g id="レイヤー_2">
	<g id="レイヤー_2-2">
		<path class="st0" d="M18.909,8.376h-1.245V5.975c-0.113-2.676-2.316-4.787-4.995-4.786V1.167c-0.053,0-0.103,0.011-0.157,0.011
			s-0.102-0.011-0.154-0.011v0.023C9.68,1.191,7.48,3.301,7.367,5.975v2.401H6.091C5.652,8.375,5.297,8.731,5.296,9.17
			c0,0.001,0,0.002,0,0.003v8.699c-0.001,0.439,0.355,0.794,0.793,0.795c0.001,0,0.001,0,0.002,0h12.818
			c0.439,0.001,0.794-0.355,0.795-0.793c0-0.001,0-0.001,0-0.002V9.172c0.001-0.439-0.354-0.795-0.792-0.796
			C18.911,8.376,18.91,8.376,18.909,8.376z M9.448,6.025c0.104-1.6,1.459-2.83,3.062-2.778c1.603-0.052,2.958,1.178,3.062,2.778
			v2.351H9.448C9.448,8.376,9.448,6.025,9.448,6.025z M16.602,13.719l-3.201,2.666c-0.191,0.159-0.475,0.134-0.634-0.057
			c-0.159-0.191-0.134-0.475,0.057-0.635l2.198-1.83H8.898c-0.249,0-0.45-0.202-0.45-0.45c0-0.249,0.202-0.45,0.45-0.45h6.224
			l-2.298-1.913c-0.191-0.159-0.217-0.443-0.057-0.634c0.159-0.191,0.443-0.217,0.634-0.058l3.203,2.668
			c0.191,0.159,0.217,0.443,0.058,0.634c-0.017,0.021-0.037,0.04-0.058,0.058L16.602,13.719z"/>
	</g>
</g>
</svg>
