<svg xmlns="http://www.w3.org/2000/svg" viewBox="0 0 38.49306 42.99593"><defs><style>.a{fill:#666;}</style></defs><title>icon_onlinestorage</title><path class="a" d="M34.5107,29.77207V15.83421l-5.547-5.23125H28.2248C28.06514,3.64473,23.6056,0,19.18893,0c-5.09917,0-8.68219,4.34155-8.82339,10.603H4.67745v7.734L0,21.63148l4.67745,3.29421V42.99593H34.5107V35.38187l3.98236-2.80505ZM28.53508,11.80792l4.76983,4.50852H28.53508ZM19.17725,3.93286c2.92305,0,5.00453,2.7071,5.24112,6.6701H14.18756C14.40946,6.59385,16.341,3.93286,19.17725,3.93286ZM4.18113,21.63148l9.32348-6.567-.00776,4.67308H26.83019V23.5628H13.49692l.00769,4.6354ZM24.98846,39.14384l.00776-4.67307H11.66288V30.6455H24.99614l-.00768-4.6354,9.32347,6.56672Z"/></svg>