<svg xmlns="http://www.w3.org/2000/svg" viewBox="0 0 371.56518 257.47756"><defs><style>.a{fill:#666;}</style></defs><title>icon_tapiridae</title><path class="a" d="M307.01861,56.86593c4.25953-22.35019-11.10379-65.07861-34.84643-26.975C173.59225-29.03363-26.30047-13.55559,2.87965,192.99167c.18631,1.47863,8.44885,10.70809,9.51069,6.6373,2.59082-9.73966,6.1321-24.86811,15.18174-40.29823C32.33789,182.374,62.56635,196.067,61.61724,254.0879c16.68371,1.08923,25.38435,6.54489,41.53.80583.50831-10.47661-1.89417-25.39927-.74052-49.18018,29.2321,6.73381,56.60512,5.25181,86.34148.62628,2.38223,21.40065,2.49226,24.99638,2.35523,47.06515,6.13074.5102,38.05019-1.41928,46.28775-1.4672.20724-57.53564,23.32614-59.131,36.37753-87.45107-9.48851-8.58564-22.749-12.32574-31.54219-31.46223h.09315a4.306,4.306,0,1,1,7.79879-3.653c7.66107,16.58414,23.90532,24.63663,33.94727,30.651,11.61751,6.96664,51.16427.09111,57.0196,64.36326,1.89823,21.09494,25.896,15.362,28.11558,4.85835C378.50035,186.28081,360.89251,105.17212,307.01861,56.86593ZM270.76,96.74912a16.83057,16.83057,0,1,1,16.88959-16.819A16.86,16.86,0,0,1,270.76,96.74912Z"/></svg>