<svg xmlns="http://www.w3.org/2000/svg" viewBox="0 0 13.0281 9.5"><defs><style>.a{fill:#78818c;}</style></defs><title>icon_view</title><path class="a" d="M6.5143,9.5C2.4293,9.5.1505,5.1631.0553,4.9785a.5.5,0,0,1,0-.457C.1505,4.3369,2.4293,0,6.5143,0s6.3633,4.3369,6.4585,4.5215a.5.5,0,0,1,0,.457C12.8776,5.1631,10.5992,9.5,6.5143,9.5Zm-5.44-4.751c.5059.8467,2.46,3.751,5.44,3.751,2.9883,0,4.9346-2.9023,5.4389-3.749C11.4474,3.9043,9.4938,1,6.5143,1,3.5255,1,1.5792,3.9023,1.0748,4.749Z"/><path class="a" d="M6.5143,6.8906A2.14,2.14,0,1,1,8.6544,4.75,2.1425,2.1425,0,0,1,6.5143,6.8906Zm0-3.28a1.14,1.14,0,1,0,1.14,1.14A1.1414,1.1414,0,0,0,6.5143,3.61Z"/></svg>