<?xml version="1.0" encoding="utf-8"?>
<!-- Generator: Adobe Illustrator 22.1.0, SVG Export Plug-In . SVG Version: 6.00 Build 0)  -->
<svg version="1.1" id="レイヤー_1" xmlns="http://www.w3.org/2000/svg" xmlns:xlink="http://www.w3.org/1999/xlink" x="0px"
	 y="0px" viewBox="0 0 45 45.0022" style="enable-background:new 0 0 45 45.0022;" xml:space="preserve">
<style type="text/css">
	.st0{fill:#666666;}
</style>
<title>icon_up</title>
<path class="st0" d="M22.572,0.0001c-0.0002,0-0.0004,0-0.0005,0C10.1444-0.0387,0.0389,10.0038,0.0001,22.4308
	c-0.0388,12.427,10.0037,22.5325,22.4307,22.5713C34.8575,45.0409,44.963,34.9987,45.0021,22.572
	C45.0413,10.145,34.999,0.0392,22.572,0.0001z M33.3607,22.2918l-0.0767,0.075c-0.4296,0.4196-1.1184,0.4105-1.5368-0.0203
	l-8.1473-8.39v19.8901c0,0.5994-0.4859,1.0852-1.0852,1.0852h-0.1034c-0.5993,0-1.0852-0.4858-1.0852-1.0852V13.9564l-8.1477,8.3904
	c-0.4182,0.4307-1.1066,0.44-1.5363,0.0208c-0.4284-0.4179-0.4376-1.1037-0.0205-1.533l10.1389-10.4351
	c0.4262-0.4387,1.1305-0.4386,1.5567,0.0001l10.0637,10.3597C33.7975,21.1884,33.7886,21.8738,33.3607,22.2918z"/>
</svg>
