<?xml version="1.0" encoding="utf-8"?>
<!-- Generator: Adobe Illustrator 21.0.1, SVG Export Plug-In . SVG Version: 6.00 Build 0)  -->
<svg version="1.1" id="レイヤー_1" xmlns="http://www.w3.org/2000/svg" xmlns:xlink="http://www.w3.org/1999/xlink" x="0px"
	 y="0px" viewBox="0 0 18 18" style="enable-background:new 0 0 18 18;" xml:space="preserve">
<style type="text/css">
	.st0{fill:#033333;}
</style>
<title>icon_edit01</title>
<g id="レイヤー_2">
	<g id="管理ページ">
		<path class="st0" d="M16.9,3.3c-0.3-1.1-1.1-1.9-2.2-2.2c-0.6-0.2-1.3,0-1.7,0.4L2.8,11.7L1,17l5.3-1.8L16.5,5
			C17,4.6,17.1,3.9,16.9,3.3z M14.5,1.9c0.8,0.3,1.4,0.9,1.7,1.7c0.1,0.2,0.1,0.4,0,0.6l-2.3-2.2C14.1,1.8,14.3,1.8,14.5,1.9z
			 M3.8,11.9l9.5-9.5l2.3,2.3l-9.4,9.5L3.8,11.9z M3.4,12.6l2,2l-3.1,1L3.4,12.6z"/>
	</g>
</g>
</svg>
