<svg xmlns="http://www.w3.org/2000/svg" viewBox="0 0 19.95849 17.20995"><defs><style>.a{fill:#666;}</style></defs><title>icon_edit2</title><path class="a" d="M19.8733,7.17085a2.5,2.5,0,0,0-1.7598-1.791,1.63363,1.63363,0,0,0-1.6299.3882l-6.7578,6.853L8.1887,17.21l4.5391-1.5625L19.4456,8.831A1.51049,1.51049,0,0,0,19.8733,7.17085Zm-2.0537-.83551a1.5182,1.5182,0,0,1,1.0918,1.10891l.0078.02589a.59314.59314,0,0,1-.0547.51351l-1.56411-1.5904A.64739.64739,0,0,1,17.8196,6.33534ZM10.3792,13.82l1.1597,1.1793-1.7574.6052Zm2.0736.6826-1.5866-1.6134,5.7181-5.7981L18.1705,8.704Z"/><path class="a" d="M0,0V16.17163H7.18866v-1H1V4.00012H15.17169V5.89294l1-.838V0ZM15.17169,3.00012H1V1H15.17169Z"/></svg>