<svg xmlns="http://www.w3.org/2000/svg" viewBox="0 0 30 30"><defs><style>.a{fill:#666;}</style></defs><title>icon_admin</title><path class="a" d="M28.09722,11.11017l-9.76615-.00446L15.33332,2.53a.78869.78869,0,0,0-.74488-.52983h0a.79076.79076,0,0,0-.74619.5289l-3.00851,8.57315L1.90365,11.0968H1.90272a.79057.79057,0,0,0-.46316,1.43108L8.55228,17.663l-2.9814,8.49441a.79057.79057,0,0,0,1.492.523L10.25711,17.579a.79.79,0,0,0-.48353-1.0072l-.00081-.00028c-.01263-.00446-.02563-.00149-.03825-.00539L4.3502,12.67942l7.042.0039h0l.02693-.00483a.77557.77557,0,0,0,.15061-.03045.80558.80558,0,0,0,.14968-.039.59984.59984,0,0,0,.31571-.27968.77192.77192,0,0,0,.09156-.15358l.01244-.021,2.44637-6.97288L17.024,12.15628l.01133.01467a.77171.77171,0,0,0,.2548.33688.68063.68063,0,0,0,.0754.05107.76914.76914,0,0,0,.40466.12739l10.327.00465a.79039.79039,0,1,0,0-1.58077Z"/><path class="a" d="M23.76311,13.94356,19.3365,17.01335c-.015.0104-.02228.02638-.03714.03715a.74408.74408,0,0,0-.10994.11439.78118.78118,0,0,0-.08858.11849.79783.79783,0,0,0-.05367.13761.54744.54744,0,0,0-.03715.28934.77411.77411,0,0,0,.02284.16324c.00465.01652,0,.033.00688.04939l2.50709,7.17215L15.2076,20.51846l-.02229-.01022a.76482.76482,0,0,0-.15172-.06889.796.796,0,0,0-.13112-.05145.80754.80754,0,0,0-.14541-.00482.79035.79035,0,0,0-.15562.00241.7813.7813,0,0,0-.12016.044.75788.75788,0,0,0-.16714.07169l-.02024.00873-3.29562,2.28424a.79057.79057,0,0,0,.90144,1.29886l2.83561-1.96538L22.6611,27.85a.7902.7902,0,0,0,1.20916-.90126l-3.13851-8.97855,3.933-2.72754a.791.791,0,1,0-.90144-1.3h0Z"/></svg>