<?xml version="1.0" encoding="utf-8"?>
<!-- Generator: Adobe Illustrator 22.1.0, SVG Export Plug-In . SVG Version: 6.00 Build 0)  -->
<svg version="1.1" id="レイヤー_1" xmlns="http://www.w3.org/2000/svg" xmlns:xlink="http://www.w3.org/1999/xlink" x="0px"
	 y="0px" viewBox="0 0 25 20" style="enable-background:new 0 0 25 20;" xml:space="preserve">
<style type="text/css">
	.st0{fill:#46464B;}
</style>
<g id="download_1_">
	<g>
		<path class="st0" d="M22.25,19H3.375c-0.5662,0-1.0671-0.2021-1.0671-1v-7.4c0-0.4,0.3-0.8,0.8-0.8s0.8,0.3,0.8,0.8v6.8
			c0.1,0,17.8843,0,17.9843,0v-6.8c0-0.4,0.3-0.8,0.8-0.8s0.8,0.3,0.8,0.8v7.1C23.4921,18.5479,23.05,19,22.25,19z"/>
		<g>
			<g>
				<path class="st0" d="M18.7876,8.8612l-6.0764,6.2029L6.5083,8.9878c-0.2532-0.2532-0.2532-0.633,0-0.8861
					c0.2532-0.2532,0.633-0.2532,0.8861,0l4.6839,4.6839v-9.76c0-0.3798,0.2532-0.633,0.633-0.633s0.633,0.2532,0.633,0.633v9.76
					l4.6839-4.6839c0.2532-0.2532,0.633-0.2532,0.8861,0C19.0407,8.2283,19.0407,8.7346,18.7876,8.8612z"/>
			</g>
		</g>
	</g>
</g>
</svg>
