<?xml version="1.0" encoding="utf-8"?>
<!-- Generator: Adobe Illustrator 22.1.0, SVG Export Plug-In . SVG Version: 6.00 Build 0)  -->
<svg version="1.1" id="レイヤー_1" xmlns="http://www.w3.org/2000/svg" xmlns:xlink="http://www.w3.org/1999/xlink" x="0px"
	 y="0px" viewBox="0 0 25 20" style="enable-background:new 0 0 25 20;" xml:space="preserve">
<style type="text/css">
	.st0{fill:#333333;}
</style>
<path class="st0" d="M19.393,7.799h-1.896V5.967c-0.051-2.617-2.228-4.658-4.954-4.748l0.002-0.022
	c-0.053-0.001-0.102,0.011-0.155,0.011c-0.053,0-0.102-0.012-0.155-0.011l0.002,0.022C9.511,1.309,7.333,3.35,7.283,5.967v1.942
	H5.496C5.056,7.799,4.616,8.129,4.616,8.569v9.827c0,0.44,0.33,0.77,0.77,0.77h14.007c0.44,0,0.77-0.33,0.77-0.77V8.569
	C20.163,8.129,19.833,7.799,19.393,7.799z M9.35,6.016c0.0291-1.521,1.432-2.793,3.04-2.755c1.608-0.038,3.011,1.234,3.04,2.755
	v1.8052L9.35,7.8868V6.016z M14.593,11.918c0,1.23-0.9971,2.2271-2.227,2.2271c-1.23,0-2.2271-0.9971-2.2271-2.2271
	c0-1.2299,0.9971-2.227,2.2271-2.227C13.5959,9.691,14.593,10.688,14.593,11.918z M8.06,17.69c0.187-1.402,1.038-2.594,2.227-3.248
	c0.565,0.466,1.289,0.746,2.078,0.745c0.798,0,1.529-0.287,2.097-0.762c1.205,0.651,2.069,1.851,2.257,3.265H8.06z"/>
</svg>
