<?xml version="1.0" encoding="utf-8"?>
<!-- Generator: Adobe Illustrator 23.0.4, SVG Export Plug-In . SVG Version: 6.00 Build 0)  -->
<svg version="1.1" id="レイヤー_1" xmlns="http://www.w3.org/2000/svg" xmlns:xlink="http://www.w3.org/1999/xlink" x="0px"
	 y="0px" viewBox="0 0 30 30" style="enable-background:new 0 0 30 30;" xml:space="preserve">
<style type="text/css">
	.st0{fill:#D74948;}
</style>
<path class="st0" d="M27.6,23.7l-11-19c-0.9-1.6-2.4-1.6-3.3,0l-11,19c-0.9,1.6-0.2,2.8,1.6,2.8h22C27.7,26.5,28.5,25.2,27.6,23.7z
	 M14.1,9.4c0.5-0.5,1.3-0.5,1.9,0l0,0c0.2,0.3,0.4,0.6,0.4,1c0,0.3-0.1,1.5-0.3,3.4s-0.4,3.8-0.6,5.6h-0.8c-0.2-1.8-0.3-3.7-0.5-5.6
	c-0.2-1.9-0.3-3.1-0.3-3.4C13.7,10,13.8,9.7,14.1,9.4z M16,23.5c-0.5,0.5-1.4,0.5-2,0c-0.3-0.3-0.4-0.6-0.4-1c0-0.8,0.6-1.4,1.4-1.4
	s1.4,0.6,1.4,1.4C16.4,22.9,16.2,23.3,16,23.5z"/>
</svg>
