<?xml version="1.0" encoding="utf-8"?>
<!-- Generator: Adobe Illustrator 22.1.0, SVG Export Plug-In . SVG Version: 6.00 Build 0)  -->
<svg version="1.1" id="レイヤー_1" xmlns="http://www.w3.org/2000/svg" xmlns:xlink="http://www.w3.org/1999/xlink" x="0px"
	 y="0px" viewBox="0 0 19 19" style="enable-background:new 0 0 19 19;" xml:space="preserve">
<style type="text/css">
	.st0{fill:#333333;}
</style>
<title>icon_spension</title>
<path class="st0" d="M11.9531,13.1965c-0.078,0-0.1543-0.0231-0.2192-0.0664l-2.376-1.5635
	c-0.1126-0.0738-0.1803-0.1994-0.1802-0.334V8.0442c-0.0001-0.2209,0.1789-0.4,0.3997-0.4001
	c0.2209-0.0001,0.4,0.1789,0.4001,0.3997c0,0.0001,0,0.0002,0,0.0003v2.9727l2.1958,1.4453c0.1845,0.1217,0.2355,0.37,0.1137,0.5545
	C12.213,13.1289,12.0876,13.1965,11.9531,13.1965L11.9531,13.1965z"/>
<path class="st0" d="M9.5,17.5178c-3.5757,0.0488-6.5165-2.8053-6.5747-6.3808c0.0456-3.1088,2.3048-5.7416,5.3706-6.2588V4.3948
	h-0.835c-0.4236,0.0026-0.7694-0.3381-0.773-0.7617V2.2786c0.0036-0.4236,0.3494-0.7643,0.773-0.7617h4.0781
	c0.4236-0.0026,0.7694,0.3381,0.773,0.7617v1.3545c-0.0036,0.4236-0.3494,0.7643-0.773,0.7617h-0.835v0.4834
	c3.0659,0.5171,5.3251,3.15,5.3707,6.2588C16.0165,14.7125,13.0757,17.5666,9.5,17.5178z M8.6958,3.594
	c0.2209,0.0003,0.3998,0.1795,0.3999,0.4004V5.221C9.0955,5.4223,8.9458,5.5921,8.7461,5.6175
	c-2.822,0.3185-4.9703,2.6801-5.021,5.5195c0.0583,3.1336,2.6411,5.6293,5.7749,5.58c3.1338,0.0493,5.7166-2.4464,5.7749-5.58
	c-0.0507-2.8394-2.199-5.201-5.021-5.5195C10.0542,5.5921,9.9045,5.4223,9.9043,5.221V3.9944c0.0001-0.2209,0.179-0.4,0.3999-0.4004
	h1.2349l-0.0269-1.3154L7.4609,2.3176l0.0269,1.3154L8.6958,3.594z"/>
</svg>
