<svg xmlns="http://www.w3.org/2000/svg" viewBox="0 0 12.00041 12.07148"><defs><style>.a{fill:#4a4a4a;}</style></defs><title>icon_setting03</title><path class="a" d="M11.50334,4.75776l-1.06494-.142a2.97555,2.97555,0,0,0-.28418-.71l.71-.92309a.53818.53818,0,0,0-.0708-.71l-.99414-.99408a.64617.64617,0,0,0-.78125-.071l-.92285.6391A2.52171,2.52171,0,0,0,7.456,1.56257L7.31389.49745A.60272.60272,0,0,0,6.746.00044H5.3261a.5482.5482,0,0,0-.56787.497L4.61565,1.56288a7.40392,7.40392,0,0,0-.71.284l-.92285-.6391a.63969.63969,0,0,0-.78125,0L1.20745,2.273a.55752.55752,0,0,0,0,.78113l.63916.852c-.0708.21289-.21289.497-.2837.71l-1.06543.142a.603.603,0,0,0-.49707.568v1.42a.54913.54913,0,0,0,.49707.568l1.06543.14215a2.95433,2.95433,0,0,0,.2837.71l-.63916.85211a.63714.63714,0,0,0,.07128.781l1.065.99408a.646.646,0,0,0,.78125.071l.85205-.639a2.52189,2.52189,0,0,0,.63916.284l.14209,1.06512a.60188.60188,0,0,0,.56787.497L6.746,12.00013a.60177.60177,0,0,0,.56787-.49695L7.456,10.43806a2.96827,2.96827,0,0,0,.71045-.28412l.78076.6391a.63677.63677,0,0,0,.78125-.071l.99365-.99408a.6457.6457,0,0,0,.07129-.78113l-.63916-.852a2.51408,2.51408,0,0,0,.28418-.6391l1.06494-.142a.60247.60247,0,0,0,.49707-.568v-1.42A.60252.60252,0,0,0,11.50334,4.75776ZM6.0385,8.73414H6.03606a2.697,2.697,0,1,1,.00244,0Z"/></svg>