<svg xmlns="http://www.w3.org/2000/svg" viewBox="0 0 10.73389 13.6004"><defs><style>.a{fill:#4a4a4a;}</style></defs><title>icon_lock</title><path class="a" d="M9.5415,5.69849H8.749V3.46777A3.42982,3.42982,0,0,0,5.36719,0,3.43,3.43,0,0,0,1.98438,3.46777V5.69849h-.792A1.20993,1.20993,0,0,0,0,6.92548v5.44787A1.21,1.21,0,0,0,1.19238,13.6004H9.5415a1.21,1.21,0,0,0,1.19239-1.22705V6.92548A1.20994,1.20994,0,0,0,9.5415,5.69849ZM2.78516,5.69824V3.46777a2.62838,2.62838,0,0,1,2.582-2.667,2.62757,2.62757,0,0,1,2.58105,2.667V5.69849H2.78516Zm2.97754,4.24v1.3645a.4004.4004,0,0,1-.80079,0V9.93634a1.1581,1.1581,0,1,1,.80079.00189Z"/></svg>