<svg xmlns="http://www.w3.org/2000/svg" viewBox="0 0 14 14.00653"><defs><style>.a{fill:#414042;}</style></defs><title>icon_key</title><path class="a" d="M9.4309,0A4.57485,4.57485,0,0,0,4.85622,4.57748a4.86976,4.86976,0,0,0,.06163.75918,2.40679,2.40679,0,0,1,.056.28294,2.498,2.498,0,0,1-.70876,2.11505h0L.416,11.581a1.4203,1.4203,0,1,0,2.0086,2.0086l.409-.409a.4584.4584,0,0,0,.13727-.311v-.26893a.18792.18792,0,0,1,0-.056.46543.46543,0,0,1,.13727-.30535l.66953-.66954a.45849.45849,0,0,1,.311-.13727.12037.12037,0,0,1,.04482,0h.26333a.4578.4578,0,0,0,.32216-.14007l.11766-.11765a.46548.46548,0,0,0,.13727-.30536v-.27453a.18792.18792,0,0,1,0-.056.46538.46538,0,0,1,.13727-.30535.38272.38272,0,0,1,.06443-.05323.45747.45747,0,0,1,.24652-.084.12036.12036,0,0,1,.04482,0h.29135a.52063.52063,0,0,0,.09525-.01681.48553.48553,0,0,0,.2017-.12046l.2129-.21291A2.50357,2.50357,0,0,1,8.386,9.0373a2.31647,2.31647,0,0,1,.27734.056A4.57181,4.57181,0,0,0,14,4.58308,4.5677,4.5677,0,0,0,9.4309,0ZM2.83641,12.51383l.00561-.0056v.0084Zm2.4008-2.40359.01961-.01961h.0028A.13987.13987,0,0,0,5.23721,10.11024Zm4.85762-4.77638a1.42031,1.42031,0,1,1,1.42031-1.42031A1.42034,1.42034,0,0,1,10.09483,5.33386Z"/></svg>