<?xml version="1.0" encoding="utf-8"?>
<!-- Generator: Adobe Illustrator 21.0.1, SVG Export Plug-In . SVG Version: 6.00 Build 0)  -->
<svg version="1.1" id="レイヤー_1" xmlns="http://www.w3.org/2000/svg" xmlns:xlink="http://www.w3.org/1999/xlink" x="0px"
	 y="0px" viewBox="0 0 15 15" style="enable-background:new 0 0 15 15;" xml:space="preserve">
<title>icon_revoked</title>
<g id="レイヤー_2">
	<g id="レイヤー_2のコピー_2">
		<path style="fill:#F50033;" d="M7.5,0C3.358,0,0,3.358,0,7.5S3.358,15,7.5,15S15,11.642,15,7.5S11.642,0,7.5,0z M12,9.77
			c0.089,1.931-1.404,3.568-3.335,3.658c-0.085,0.004-0.17,0.005-0.255,0.002C7.164,13.384,5.98,12.874,5.09,12L2.51,8.44
			C2.344,8.193,2.223,7.919,2.15,7.63c0-0.254,0.206-0.46,0.46-0.46l0,0c0.111,0.002,0.218,0.045,0.3,0.12l1.56,1.57
			C4.538,8.931,4.625,8.979,4.72,9c0.16-0.005,0.286-0.138,0.281-0.298C5.001,8.694,5.001,8.687,5,8.68c0,0,0.1-5.15,0.13-6.19
			C5.128,2.192,5.353,1.941,5.65,1.91c0.285,0.005,0.515,0.235,0.52,0.52c0,0.85,0.2,4.1,0.2,4.22
			c0.031,0.174,0.197,0.29,0.371,0.259C6.873,6.885,6.976,6.782,7,6.65c0-0.18,0.18-4.42,0.21-4.76
			c0.01-0.285,0.236-0.515,0.52-0.53c0.23,0,0.46,0.16,0.49,0.56s0.11,4.6,0.11,4.78c0.031,0.174,0.197,0.29,0.371,0.259
			C8.833,6.935,8.936,6.832,8.96,6.7c0-0.12,0.33-4.28,0.33-4.29C9.321,2.17,9.528,1.993,9.77,2c0.26,0,0.47,0.21,0.47,0.47v0
			l0.06,4.76c-0.006,0.16,0.119,0.295,0.279,0.301c0.01,0,0.021,0,0.031-0.001c0.127,0.039,0.261-0.033,0.3-0.159
			c0.008-0.026,0.011-0.053,0.01-0.081c0-0.12,0.32-3.18,0.33-3.18c0.03-0.181,0.187-0.312,0.37-0.31C11.83,3.8,12,3.97,12,4.18l0,0
			L12,9.77z"/>
	</g>
</g>
</svg>
