<svg xmlns="http://www.w3.org/2000/svg" viewBox="0 0 30 30"><defs><style>.a{fill:#666;}</style></defs><title>icon_approve</title><rect class="a" x="3.9688" y="26.72726" width="22.06185" height="1.08392"/><path class="a" d="M23.453,18.761H17.82528l-.02389-.02525a3.80563,3.80563,0,0,1-1.0323-2.92068c0-1.12207.82586-2.646,1.62491-4.11952.89193-1.64615,1.73546-3.20179,1.73546-4.57341A4.98932,4.98932,0,0,0,15.0857,2.18947l-.08337.00174A4.98913,4.98913,0,0,0,9.872,7.035l-.00014.00471-.0021.08346c0,1.37034.84316,2.9257,1.73591,4.5724.7997,1.47584,1.62547,2.99909,1.62547,4.1262a3.80264,3.80264,0,0,1-1.033,2.91436l-.0237.02526H6.55153q-.14028-.00916-.27937-.00916A4.21543,4.21543,0,0,0,2.21962,21.768,9.59231,9.59231,0,0,0,2,23.64471V24.458a1.43485,1.43485,0,0,0,1.43073,1.43073H26.56917A1.43513,1.43513,0,0,0,28,24.458v-.81443a9.60338,9.60338,0,0,0-.221-1.87775A4.21581,4.21581,0,0,0,23.453,18.761ZM12.18488,10.48224A8.36233,8.36233,0,0,1,10.9551,7.133l-.00091-.006V7.12114A3.91892,3.91892,0,0,1,14.867,3.27257l.06671.00046.06927.00173a3.9183,3.9183,0,0,1,4.04165,3.77683l.00156.06918a8.35787,8.35787,0,0,1-1.2307,3.36147l-.02361.03752H12.20822Zm.6703,1.24543-.07952-.124h4.44923l-.07934.124a9.70523,9.70523,0,0,0-1.4613,4.10314,5.48855,5.48855,0,0,0,.68522,2.811l.06607.1196h-2.8708l.066-.11933a5.49379,5.49379,0,0,0,.6843-2.81846,9.69806,9.69806,0,0,0-1.46029-4.09591ZM26.916,24.459a.35278.35278,0,0,1-.34645.34655H3.43064a.3526.3526,0,0,1-.34773-.34655v-.81543a8.582,8.582,0,0,1,.18933-1.62308A3.13333,3.13333,0,0,1,6.559,19.84556H23.448a3.127,3.127,0,0,1,3.276,2.1638,8.5513,8.5513,0,0,1,.19216,1.63215Z"/></svg>