<svg xmlns="http://www.w3.org/2000/svg" viewBox="0 0 15 11.8003"><defs><style>.a{fill:#444;}</style></defs><title>icon_teambox</title><path class="a" d="M11.1821,11.8h-1V10.5444A2.0312,2.0312,0,0,0,8.1362,8.5332H3.0454A2.0308,2.0308,0,0,0,1,10.5444V11.8H0V10.5444A3.0318,3.0318,0,0,1,3.0454,7.5332H8.1362a3.0319,3.0319,0,0,1,3.0459,3.0112Z"/><path class="a" d="M5.5908,6.0225A3.0321,3.0321,0,0,1,2.5454,3.0112a3.0456,3.0456,0,0,1,6.0908,0A3.0321,3.0321,0,0,1,5.5908,6.0225ZM5.5908,1A2.0308,2.0308,0,0,0,3.5454,3.0112a2.0457,2.0457,0,0,0,4.0908,0A2.0308,2.0308,0,0,0,5.5908,1Z"/><path class="a" d="M15,11.8H14V10.5444A2.0176,2.0176,0,0,0,12.4678,8.6l.2461-.9687A3.0157,3.0157,0,0,1,15,10.5439Z"/><path class="a" d="M10.168,5.9316l-.2451-.97a2.0265,2.0265,0,0,0,1.4731-1.45,1.9686,1.9686,0,0,0-.2139-1.5088,2.028,2.028,0,0,0-1.2592-.9365l.2451-.97a3.0215,3.0215,0,0,1,1.8745,1.397,2.9621,2.9621,0,0,1,.3213,2.27A3.0276,3.0276,0,0,1,10.168,5.9316Z"/></svg>