<svg xmlns="http://www.w3.org/2000/svg" viewBox="0 0 45 45.0022"><defs><style>.a{fill:#666;}</style></defs><title>icon_up</title><path class="a" d="M22.5693,0A22.5011,22.5011,0,1,0,45,22.57189,22.50111,22.50111,0,0,0,22.5693,0Zm12.1634,28.7434a1.3952,1.3952,0,0,1-1.97311-.0033l-.00189-.0019L22.5114,18.42729l-10.31,10.2479a1.3969,1.3969,0,0,1-1.9689-1.9821L21.495,15.5c.0139-.0153.0074-.0378.0223-.0532a1.45181,1.45181,0,0,1,2.0062.0075c.0144.0135.0078.0367.0214.0522l11.1938,11.2624a1.3957,1.3957,0,0,1-.00531,1.97381Z"/></svg>