<svg xmlns="http://www.w3.org/2000/svg" viewBox="0 0 40.1131 44.6933"><defs><style>.a{fill:#666;}</style></defs><title>icon_sealed</title><path class="a" d="M38.4043,7.5857c-3.8511-.11991-8.644-.2688-17.359-6.8402L20.0561,0l-.9892.7455C10.3518,7.3169,5.5589,7.46579,1.7078,7.5857L0,7.6392l.1239,1.699c.1457,1.9922.469,5.7169,1.1859,12.1449.9819,8.80969,4.0168,15.3231,9.0211,19.3574a16.7026,16.7026,0,0,0,9.7252,3.8528c.1612,0,16.1886-.2651,18.7462-23.2102.716-6.428,1.0402-10.1527,1.186-12.1449l.1248-1.699ZM12.3931,38.299c-4.077-3.2871-6.6511-8.6409-7.664-15.9187h15.327V4.0843c7.2786,5.2784,12.1116,6.3953,16.5292,6.6886-.173,2.0394-.4855,5.3628-1.0411,10.3488-.0483.4332-.1084.8445-.1658,1.2586H20.0561V41.4244a13.63082,13.63082,0,0,1-7.663-3.1254"/></svg>