<?xml version="1.0" encoding="utf-8"?>
<!-- Generator: Adobe Illustrator 22.1.0, SVG Export Plug-In . SVG Version: 6.00 Build 0)  -->
<svg version="1.1" id="レイヤー_1" xmlns="http://www.w3.org/2000/svg" xmlns:xlink="http://www.w3.org/1999/xlink" x="0px"
	 y="0px" viewBox="0 0 45 45" style="enable-background:new 0 0 45 45;" xml:space="preserve">
<style type="text/css">
	.st0{fill:#666666;}
</style>
<title>icon_up</title>
<path class="st0" d="M22.5,1L22.5,1C34.4,1,44,10.7,44,22.6C44,34.4,34.3,44,22.5,44l-0.1,0C10.6,44,1,34.3,1,22.4
	C1,10.6,10.7,1,22.5,1 M22.5,0C10.1,0,0,10,0,22.4C0,34.9,10,45,22.4,45c0,0,0,0,0.1,0C34.9,45,45,35,45,22.6c0,0,0,0,0,0
	C45,10.1,35,0,22.5,0C22.5,0,22.5,0,22.5,0L22.5,0z"/>
<path class="st0" d="M17.5,35.1c-0.2,0-0.3-0.1-0.4-0.2c-0.2-0.2-0.3-0.6,0-0.9l11-11.5L17.1,11c-0.2-0.2-0.2-0.6,0-0.9
	c0.2-0.2,0.6-0.2,0.9,0l11.5,12c0.2,0.2,0.2,0.6,0,0.9L18,34.9C17.9,35,17.7,35.1,17.5,35.1z"/>
</svg>
