<svg xmlns="http://www.w3.org/2000/svg" viewBox="0 0 24.14055 44.3762"><defs><style>.a{fill:#666;}</style></defs><title>icon_giraffe</title><path class="a" d="M22.62937,2.2169a44.59718,44.59718,0,0,0-5.4705-.5482V.5142A.51348.51348,0,0,0,16.64527,0c-.2843,0-.716.2304-.716.5142V1.7529a.897.897,0,0,0-.4943.4783,1.84772,1.84772,0,0,0-.2425-.3774c-1.3313-1.5347-3.0582-.9403-2.3609-.1626.605.674,1.5676,1.7495,2.4942,2.7824v17.773c0,.6543-.27607.9791-.9304.9791H7.85527a5.36752,5.36752,0,0,0-4.2091,1.7119c-.0086.0079-.0181.0137-.026.0216l-2.0429,2.043a1.3164,1.3164,0,1,0,1.0293,1.0284l.2834-.2838c.045,3.2465.4036,15.1631.4036,15.6144a1.21191,1.21191,0,0,0,1.20113,1.015H5.64507a1.15458,1.15458,0,0,0,1.2577-1.0983c.0594-1.0882.40293-9.2405.40293-9.5642a.894.894,0,0,1,.89587-.8734h6.6278a1.14864,1.14864,0,0,1,1.2587,1.0606c.0201.517.5674,7.5506.705,9.4709a1.14637,1.14637,0,0,0,1.2442,1.0044h1.0256c.7481,0,1.3781-.3598,1.3781-1.1515V6.3879c0-.6428-.0151-1.3089.7026-1.3089a7.70182,7.70182,0,0,0,2.4017-.2723C24.398,4.4986,24.52777,2.7372,22.62937,2.2169Zm-3.1813.8172h-2.4132a1.17388,1.17388,0,0,1,1.2063-.7239A1.17393,1.17393,0,0,1,19.44807,3.0341Zm-1.7952.2808a.6144.6144,0,0,0,1.177,0h.6182a1.17387,1.17387,0,0,1-1.2069.7242,1.17381,1.17381,0,0,1-1.2063-.7242Zm1.8979,15.7873a.21269.21269,0,0,1-.2122.2118H16.325a.212.212,0,0,1-.21127-.2118v-.1447a.21189.21189,0,0,1,.21127-.2121h3.0136a.21256.21256,0,0,1,.2122.2121Zm0-3.6762a.21256.21256,0,0,1-.2122.2121H16.325a.21189.21189,0,0,1-.21127-.2121v-.1447a.21189.21189,0,0,1,.21127-.2121h3.0136a.21256.21256,0,0,1,.2122.2121Zm0-3.6762a.213.213,0,0,1-.2122.2121H16.325a.213.213,0,0,1-.2121-.2121v-.1444a.21266.21266,0,0,1,.2121-.2124h3.0136a.21262.21262,0,0,1,.2122.2124Zm0-3.6762a.21256.21256,0,0,1-.2122.2121H16.325a.21189.21189,0,0,1-.21127-.2121V7.9292a.21208.21208,0,0,1,.21127-.2121h3.0136a.21275.21275,0,0,1,.2122.2121Z"/></svg>