<svg xmlns="http://www.w3.org/2000/svg" viewBox="0 0 30 30"><defs><style>.a{fill:#666;}</style></defs><title>icon_fileopen</title><path class="a" d="M3.65576,25.65134a1.658,1.658,0,0,1-1.187-.50755.58278.58278,0,0,1-.06728-.07314,1.64559,1.64559,0,0,1-.40078-1.00633L2,6.4909A2.15934,2.15934,0,0,1,4.1677,4.34514H9.26662a2.178,2.178,0,0,1,1.74571.87688l1.63455,2.2167h7.35731a.599.599,0,1,1,0,1.19794H12.34411a.59725.59725,0,0,1-.482-.24354l-1.813-2.4595a.97954.97954,0,0,0-.78473-.39054H4.1677a.96.96,0,0,0-.96976.94782V21.45636L5.86,12.3292,5.86076,12.27a.60822.60822,0,0,1,.05338-.21282A2.61748,2.61748,0,0,1,8.19959,10.5323H26.0363a1.92722,1.92722,0,0,1,1.62943.82714,1.86854,1.86854,0,0,1,.2428,1.64333l-3.2808,11.65394a1.29867,1.29867,0,0,1-1.3837.99316l-19.53927.00147Zm-.08045-1.20818a.40974.40974,0,0,0,.1119.01024L23.266,24.45194c.12141-.00586.18869-.04827.21063-.12726l3.28665-11.67a.67274.67274,0,0,0-.079-.60774.913.913,0,0,0-.63335-.31667H8.22445A1.41463,1.41463,0,0,0,7.055,12.455a.62385.62385,0,0,1-.02121.12725Z"/></svg>