<svg xmlns="http://www.w3.org/2000/svg" viewBox="0 0 29.5992 30"><defs><style>.a{fill:#666;}</style></defs><title>icon_word</title><path class="a" d="M29.5992,4.1464v21.706a.9978.9978,0,0,1-.9867.9867H17.76V30L0,25.8993V4.1007L17.76,0V3.16h10.853A1,1,0,0,1,29.5992,4.1464ZM12.3022,19.9942,14.9229,8.7564,12.6721,8.88l-1.3257,7.4145c-.0407.206-.0753.4083-.1.6093a4.7365,4.7365,0,0,0-.0383.6092h-.016c-.021-.196-.0407-.3934-.0617-.5944a5.9358,5.9358,0,0,0-.0925-.5932L9.5272,9.08,7.385,9.2029,5.8434,16.14a4.4123,4.4123,0,0,0-.116.5932,4.7741,4.7741,0,0,0-.0382.6093H5.6423a5.68,5.68,0,0,0-.0308-.5933c-.021-.201-.0456-.3983-.0765-.5932L4.3782,9.3731l-1.9424.1233L4.5176,19.5478l2.1582.1233L8.14,12.95c.01-.0518.0209-.0949.0308-.1319s.021-.079.0308-.1308a3.4789,3.4789,0,0,0,.0617-.4624c.01-.1542.0259-.3084.0469-.4625h.0308a4.5867,4.5867,0,0,0,.0382.6018c.0247.1949.0592.39.1.5858l1.48,6.9065Zm16.31,5.8582V4.1464H17.76v2.96h7.8931v.9866H17.76v1.9733h7.8931v.9866H17.76v1.9733h7.8931v.9866H17.76V15.986h7.8931v.9867H17.76v1.9732h7.8931v.9867H17.76v1.9733h7.8931v.9866H17.76v2.96Z"/></svg>