<svg xmlns="http://www.w3.org/2000/svg" viewBox="0 0 39 42.99593"><defs><style>.a{fill:#666;}</style></defs><title>icon_accesscontrol</title><path class="a" d="M32.64359,21.49847A11.34013,11.34013,0,1,0,16.26315,11.27978a11.33439,11.33439,0,1,0,0,20.43839,11.36847,11.36847,0,1,0,16.38044-10.2197M22.35108,36.16139,24.9197,32.1331,15.81653,26.363a6.58612,6.58612,0,1,1,0-9.72809L24.9197,10.863,22.35108,6.83538l11.67617.57116L29.59516,18.19,27.023,14.15985l-9.22047,5.8476a6.38324,6.38324,0,0,1,0,2.981L27.023,28.83524l2.57216-4.032,4.43209,10.78632Z"/></svg>