<?xml version="1.0" encoding="utf-8"?>
<!-- Generator: Adobe Illustrator 22.1.0, SVG Export Plug-In . SVG Version: 6.00 Build 0)  -->
<svg version="1.1" id="レイヤー_1" xmlns="http://www.w3.org/2000/svg" xmlns:xlink="http://www.w3.org/1999/xlink" x="0px"
	 y="0px" viewBox="0 0 119.0551 99.2126" style="enable-background:new 0 0 119.0551 99.2126;" xml:space="preserve">
<style type="text/css">
	.st0{fill:#444444;}
</style>
<title>img_contact</title>
<g id="レイヤー_2-2">
	<path class="st0" d="M117.597,12.6875c-1.2901-5.0611-6.6489-10.023-11.7101-12.504c-2.9771-1.3893-10.023,5.2596-14.9849,14.8857
		c-5.5573,10.8169-5.9543,19.4506-2.3817,21.6339c2.5802,1.5878,5.6566,2.2825,7.7406,3.1756
		C88.9172,56.5507,77.2072,68.36,60.5352,75.5051c-0.1985-2.8779-1.1909-5.5573-2.7787-7.939
		c-4.8627-5.1604-20.6415,0.9924-29.3744,5.9543c-6.6489,3.771-8.0383,7.2444-6.4505,12.3055
		c0.0992,0,5.2596,9.4276,11.9086,11.2139c9.3284,2.5802,17.3666,1.9848,25.6034-2.1832
		c24.4125-12.2063,42.7716-30.6645,55.474-54.6801C119.681,31.3442,119.9787,22.0159,117.597,12.6875z"/>
	<path class="st0" d="M9.7253,4.6492C3.4733,4.7485,0,8.9164,0,15.5654C0,32.7336,0,50.001,0,67.1691
		c0,6.4505,2.5802,10.3207,7.3436,11.4124c1.8855,0.0992,6.1528,0.2977,10.6185,0.3969c0.9924-3.2749,3.4733-5.6566,6.1528-7.4428
		c-7.0459-0.0992-14.191-0.0992-14.191-0.0992l31.6569-25.5042c4.9619,6.4505,10.1223,6.252,14.8857,0.0992l19.1529,15.5804
		c1.687-1.4886,3.3741-3.0764,4.8627-4.6642L62.6192,42.1612c0,0,11.5116-9.9238,20.443-17.6644
		c0.7939-3.4733,2.2825-7.2444,4.3665-11.3131c0.0992-0.2977,0.2977-0.5954,0.4962-0.8931
		c-10.5192,8.4352-28.3821,22.924-35.6264,28.9775c-2.3817,1.9848-3.8703,1.9848-6.252,0
		c-9.9238-8.2368-20.0461-16.1758-30.0691-24.3133c-1.9848-1.5878-3.9695-3.2749-6.9467-5.855c0,0,52.0999-0.0992,79.5889,0
		c1.1908-2.084,2.6794-4.3665,4.3665-6.5497C72.6422,4.55,29.3744,4.55,9.7253,4.6492z M36.0234,41.7642L6.7482,65.2836V18.3441
		L36.0234,41.7642z"/>
</g>
</svg>
