<?xml version="1.0" encoding="utf-8"?>
<!-- Generator: Adobe Illustrator 22.1.0, SVG Export Plug-In . SVG Version: 6.00 Build 0)  -->
<svg version="1.1" id="レイヤー_1" xmlns="http://www.w3.org/2000/svg" xmlns:xlink="http://www.w3.org/1999/xlink" x="0px"
	 y="0px" viewBox="0 0 18 18" style="enable-background:new 0 0 18 18;" xml:space="preserve">
<style type="text/css">
	.st0{fill:#666666;}
	.st1{fill:#FFFFFF;}
</style>
<rect x="0" class="st0" width="18" height="18"/>
<title>icon_mymail</title>
<path class="st1" d="M13.25,13.4889936c-0.2761421,0-0.5-0.2238579-0.5-0.5v-1.0560999
	c-0.0044632-0.8936357-0.7313566-1.6150713-1.625-1.6127996h-4.25c-0.8936434-0.0022717-1.6205368,0.7191639-1.625,1.6127996
	v1.0560999c0,0.2761421-0.2238574,0.5-0.5,0.5s-0.5-0.2238579-0.5-0.5v-1.0560999
	c0.004961-1.4456911,1.1792011-2.614563,2.6248999-2.6129007h4.25c1.4457207-0.0017729,2.620038,1.1670856,2.625,2.6127996v1.056201
	C13.7498999,13.2650967,13.526103,13.4889383,13.25,13.4889936z"/>
<path class="st1" d="M9,8.2072935C7.557117,8.2004452,6.3929811,7.0252061,6.3998294,5.5823231
	s1.1820874-2.6070192,2.62497-2.6001709C10.4629478,2.9889779,11.6251488,4.1568289,11.625,5.5949936
	C11.6197634,7.0405121,10.4455271,8.2090673,9,8.2072935z M9,3.9821932C8.1094122,3.9890416,7.3929992,4.7165575,7.399848,5.6071458
	c0.0068483,0.8905878,0.7343645,1.6070004,1.6249523,1.600152C9.9104528,7.2004876,10.6248636,6.4806724,10.625,5.5949931
	C10.6205368,4.7013578,9.8936434,3.9799216,9,3.9821932z"/>
</svg>
