<svg xmlns="http://www.w3.org/2000/svg" viewBox="0 0 14 13.95674"><defs><style>.a{fill:#414042;}</style></defs><title>logo_hdeone</title><path class="a" d="M11.2,0H2.8A2.80391,2.80391,0,0,0,0,2.79139v8.37406a2.80389,2.80389,0,0,0,2.8,2.79129H8.95163l-.00418-9.8319a5.71453,5.71453,0,0,1-1.01583.73756,7.24758,7.24758,0,0,1-1.8679.76719l-.37565.09355-.0004-.9346.21761-.06361a7.16717,7.16717,0,0,0,.93918-.34081,5.85056,5.85056,0,0,0,.76188-.41437,5.8324,5.8324,0,0,0,.68522-.5223c.22314-.19714.46-.4252.7036-.67729l.08978-.09257.82233-.00039.00479,11.27954H11.2A2.80383,2.80383,0,0,0,14,11.16545V2.79139A2.80385,2.80385,0,0,0,11.2,0Z"/></svg>